<?xml version="1.0" encoding="UTF-8"?><svg id="Layer_2" xmlns="http://www.w3.org/2000/svg" viewBox="0 0 384 264"><defs><style>.cls-1{fill:#f5f0ef;}.cls-2{fill:#0d1b1e;}.cls-3{opacity:.25;}.cls-4{opacity:.5;}.cls-5{opacity:.75;}</style></defs><g id="Layer_2-2"><g class="cls-4"><path class="cls-1" d="M324,123.69v58.31h-79v33.86c0,12.23-9.91,22.14-22.14,22.14H48.14c-12.23,0-22.14-9.91-22.14-22.14V54.6H254.91c38.16,0,69.09,30.93,69.09,69.09Z"/></g><g><path class="cls-1" d="M48.14,115H222.86c19.39,0,35.14,15.75,35.14,35.14v65.72c0,19.39-15.75,35.14-35.14,35.14H48.14c-19.39,0-35.14-15.75-35.14-35.14v-65.72c0-19.39,15.75-35.14,35.14-35.14Z"/><path class="cls-1" d="M222.86,128c12.23,0,22.14,9.91,22.14,22.14v65.72c0,12.23-9.91,22.14-22.14,22.14H48.14c-12.23,0-22.14-9.91-22.14-22.14v-65.72c0-12.23,9.91-22.14,22.14-22.14H222.86m0-26H48.14C21.6,102,0,123.6,0,150.14v65.72c0,26.54,21.6,48.14,48.14,48.14H222.86c26.54,0,48.14-21.6,48.14-48.14v-65.72c0-26.54-21.6-48.14-48.14-48.14h0Z"/></g><g class="cls-5"><path class="cls-2" d="M222.86,128c12.23,0,22.14,9.91,22.14,22.14v65.72c0,12.23-9.91,22.14-22.14,22.14H48.14c-12.23,0-22.14-9.91-22.14-22.14v-65.72c0-12.23,9.91-22.14,22.14-22.14H222.86m0-3H48.14c-13.86,0-25.14,11.28-25.14,25.14v65.72c0,13.86,11.28,25.14,25.14,25.14H222.86c13.86,0,25.14-11.28,25.14-25.14v-65.72c0-13.86-11.28-25.14-25.14-25.14h0Z"/></g><g class="cls-3"><path class="cls-1" d="M384,69.09v112.91H245v33.86c0,12.23-9.91,22.14-22.14,22.14H48.14c-12.23,0-22.14-9.91-22.14-22.14V54.6h22.25c-2.13-10.41-3.25-21.18-3.25-32.22V2.36c5.73-1.54,11.75-2.36,17.97-2.36h251.94c38.16,0,69.09,30.93,69.09,69.09Z"/></g></g><g id="Layer_1-2"><path class="cls-2" d="M86.44,142.55l2.43,5.91c1.27,3.09,5.25,3.94,7.67,1.64l4.63-4.4c3.44-3.27,9.02-.04,7.9,4.57l-1.51,6.21c-.79,3.25,1.93,6.27,5.25,5.84l6.34-.84c4.7-.62,7.32,5.27,3.7,8.34l-4.87,4.14c-2.55,2.16-2.12,6.21,.81,7.81l5.62,3.05c4.17,2.26,2.82,8.56-1.9,8.92l-6.37,.49c-3.33,.25-5.37,3.78-3.93,6.79l2.76,5.77c2.04,4.28-2.75,8.59-6.79,6.1l-5.44-3.35c-2.85-1.75-6.56-.1-7.17,3.19l-1.16,6.29c-.86,4.66-7.27,5.33-9.08,.95l-2.43-5.91c-1.27-3.09-5.25-3.94-7.67-1.64l-4.63,4.4c-3.44,3.27-9.02,.04-7.9-4.57l1.51-6.21c.79-3.25-1.93-6.27-5.25-5.84l-6.34,.84c-4.7,.62-7.32-5.27-3.7-8.34l4.87-4.14c2.55-2.16,2.12-6.21-.81-7.81l-5.62-3.05c-4.17-2.26-2.82-8.56,1.9-8.92l6.37-.49c3.33-.25,5.37-3.78,3.93-6.79l-2.76-5.77c-2.04-4.28,2.75-8.59,6.79-6.1l5.44,3.35c2.85,1.75,6.56,.1,7.17-3.19l1.16-6.29c.86-4.66,7.27-5.33,9.08-.95Z"/><g><path class="cls-1" d="M68.65,191.69c-.37,.04-.68-.04-.94-.25-.26-.2-.41-.48-.44-.81l-1.05-9.85,.32,.4-1.39,1.06c-.18,.14-.39,.22-.61,.24-.34,.04-.63-.06-.88-.29-.25-.23-.39-.49-.42-.78-.05-.44,.12-.8,.5-1.08l2.76-2.08c.21-.14,.48-.23,.82-.26s.63,.05,.87,.25,.38,.48,.41,.82l1.21,11.3c.04,.34-.05,.64-.27,.89-.22,.25-.51,.4-.89,.44Z"/><path class="cls-1" d="M77.43,190.95c-1.12,.12-2.1-.08-2.94-.59-.84-.51-1.52-1.27-2.04-2.29-.52-1.02-.85-2.22-1-3.6-.15-1.39-.08-2.64,.21-3.74,.29-1.1,.79-1.99,1.51-2.66,.71-.67,1.63-1.07,2.75-1.19,1.12-.12,2.1,.08,2.94,.59s1.52,1.27,2.03,2.28c.51,1.01,.85,2.22,1,3.61,.15,1.38,.07,2.62-.21,3.73-.29,1.11-.79,2-1.5,2.67-.71,.68-1.63,1.07-2.75,1.19Zm-.25-2.34c.55-.06,1-.28,1.36-.67,.36-.39,.61-.94,.76-1.66,.15-.72,.17-1.6,.05-2.64-.11-1.06-.32-1.92-.61-2.58-.3-.67-.66-1.15-1.09-1.45-.43-.3-.92-.43-1.47-.37-.54,.06-.99,.28-1.35,.67-.37,.39-.63,.94-.77,1.65-.15,.71-.17,1.6-.05,2.65,.11,1.04,.32,1.9,.61,2.57,.3,.67,.66,1.16,1.11,1.46,.44,.3,.93,.43,1.46,.37Z"/><path class="cls-1" d="M89.43,189.67c-1.12,.12-2.1-.08-2.94-.58-.84-.51-1.52-1.27-2.03-2.29-.52-1.02-.85-2.22-1-3.6-.15-1.39-.08-2.64,.21-3.74,.29-1.1,.79-1.99,1.5-2.66s1.63-1.07,2.75-1.19c1.12-.12,2.1,.08,2.94,.59,.84,.51,1.52,1.27,2.03,2.28,.52,1.01,.85,2.22,1,3.61,.15,1.38,.08,2.62-.21,3.73-.29,1.11-.79,2-1.5,2.67-.71,.68-1.63,1.07-2.75,1.19Zm-.25-2.34c.55-.06,1-.28,1.36-.67,.36-.39,.61-.94,.76-1.66,.15-.72,.17-1.6,.05-2.65-.11-1.06-.32-1.92-.61-2.58s-.66-1.15-1.09-1.46c-.43-.3-.92-.43-1.47-.37-.54,.06-.99,.28-1.35,.67-.37,.39-.63,.94-.77,1.65-.15,.72-.17,1.6-.05,2.66,.11,1.04,.32,1.9,.61,2.57,.3,.67,.66,1.16,1.11,1.46,.44,.3,.93,.43,1.46,.37Z"/><path class="cls-1" d="M98.53,182.17c-.63,.07-1.2-.04-1.72-.33-.52-.29-.94-.7-1.28-1.25-.33-.54-.54-1.17-.62-1.87-.08-.72,0-1.38,.2-1.98,.21-.6,.54-1.1,.99-1.49,.45-.39,.98-.62,1.61-.68,.64-.07,1.21,.04,1.72,.33s.93,.71,1.26,1.25c.33,.55,.53,1.18,.61,1.89,.08,.7,0,1.36-.22,1.96-.23,.6-.56,1.1-1,1.49-.44,.39-.96,.62-1.56,.68Zm-.19-1.74c.39-.04,.67-.27,.85-.68,.17-.41,.23-.91,.17-1.5-.06-.59-.22-1.06-.47-1.43-.25-.37-.58-.53-.98-.49-.39,.04-.68,.27-.86,.68-.18,.41-.24,.91-.17,1.5,.06,.59,.22,1.06,.48,1.43,.26,.37,.59,.53,.99,.49Zm1.09,8.01c-.21,.02-.44-.04-.69-.19-.25-.15-.4-.37-.43-.66-.02-.17,.03-.37,.13-.61l6.53-12.58c.2-.34,.45-.52,.75-.56,.22-.02,.46,.04,.7,.18,.25,.15,.38,.37,.42,.67,.02,.17-.03,.37-.13,.61l-6.53,12.58c-.2,.34-.45,.52-.75,.55Zm8.17-.71c-.6,.06-1.16-.05-1.68-.33-.52-.29-.95-.7-1.3-1.25-.35-.54-.56-1.17-.63-1.87-.08-.72,0-1.38,.2-1.98,.21-.6,.54-1.1,.99-1.49,.45-.39,.98-.62,1.61-.69,.64-.07,1.21,.04,1.72,.33,.51,.29,.93,.7,1.26,1.25,.33,.54,.53,1.18,.61,1.89,.08,.7,0,1.36-.22,1.96-.22,.6-.56,1.1-1,1.49-.44,.39-.96,.62-1.56,.68Zm-.19-1.74c.39-.04,.67-.27,.85-.68,.17-.42,.23-.91,.17-1.5-.06-.59-.22-1.06-.47-1.43-.25-.37-.58-.53-.98-.49-.39,.04-.68,.27-.86,.69-.18,.42-.24,.92-.18,1.5,.06,.59,.22,1.06,.48,1.43,.26,.37,.59,.53,.99,.49Z"/></g><g><path class="cls-2" d="M140.67,177.88c-.39,0-.71-.12-.96-.37-.25-.25-.37-.55-.37-.92v-12.17c0-.37,.12-.67,.37-.92s.55-.37,.92-.37h6.85c.36,0,.67,.12,.92,.35,.25,.23,.37,.53,.37,.9,0,.31-.12,.58-.37,.82-.25,.24-.55,.36-.92,.36h-5.69l.19-.25v4.23l-.15-.27h4.7c.37,0,.67,.12,.92,.35s.37,.53,.37,.9c0,.31-.12,.58-.37,.82-.25,.24-.55,.36-.92,.36h-4.74l.19-.19v5.1c0,.37-.13,.67-.39,.92-.26,.25-.57,.37-.92,.37Z"/><path class="cls-2" d="M161.48,172.25c0,1.15-.26,2.17-.77,3.04s-1.2,1.56-2.06,2.05c-.86,.49-1.83,.74-2.9,.74s-2.03-.25-2.9-.74-1.55-1.18-2.06-2.05-.77-1.89-.77-3.04,.26-2.17,.77-3.04c.51-.88,1.2-1.57,2.06-2.06,.86-.5,1.83-.75,2.9-.75s2.03,.25,2.9,.75c.86,.5,1.55,1.19,2.06,2.06,.51,.88,.77,1.89,.77,3.04Zm-2.53,0c0-.72-.14-1.34-.43-1.86s-.67-.94-1.16-1.23-1.02-.44-1.61-.44-1.13,.15-1.61,.44-.87,.71-1.16,1.23c-.29,.53-.43,1.15-.43,1.86s.14,1.32,.43,1.84c.29,.53,.67,.94,1.16,1.23s1.02,.44,1.61,.44,1.13-.15,1.61-.44,.87-.71,1.16-1.23c.29-.53,.43-1.14,.43-1.84Z"/><path class="cls-2" d="M164.85,177.88c-.37,0-.67-.12-.91-.37-.24-.25-.36-.55-.36-.92v-8.7c0-.37,.12-.67,.36-.92,.24-.25,.54-.37,.91-.37s.67,.12,.91,.37c.24,.25,.36,.55,.36,.92v1.98l-.15-1.41c.15-.34,.35-.63,.6-.89s.52-.48,.83-.65,.64-.31,.99-.39c.35-.08,.7-.13,1.05-.13,.42,0,.78,.12,1.06,.36,.29,.24,.43,.52,.43,.84,0,.46-.12,.8-.36,1-.24,.2-.5,.3-.78,.3-.27,0-.51-.05-.73-.15-.22-.1-.47-.15-.75-.15-.25,0-.51,.06-.77,.18s-.5,.31-.72,.56c-.22,.25-.39,.57-.53,.94s-.2,.81-.2,1.32v4.99c0,.37-.12,.67-.36,.92-.24,.25-.54,.37-.91,.37Z"/><path class="cls-2" d="M178.76,166.4c1.04,0,1.83,.22,2.37,.65,.54,.44,.91,1.01,1.12,1.74,.2,.72,.3,1.53,.3,2.41v5.39c0,.37-.12,.67-.36,.92-.24,.25-.54,.37-.91,.37s-.67-.12-.91-.37c-.24-.25-.36-.55-.36-.92v-5.39c0-.46-.06-.88-.18-1.25-.12-.37-.33-.67-.64-.9-.31-.22-.75-.34-1.33-.34s-1.04,.11-1.42,.34c-.39,.23-.68,.52-.88,.9s-.31,.79-.31,1.25v5.39c0,.37-.12,.67-.36,.92-.24,.25-.54,.37-.91,.37s-.67-.12-.91-.37c-.24-.25-.36-.55-.36-.92v-8.7c0-.37,.12-.67,.36-.92,.24-.25,.54-.37,.91-.37s.67,.12,.91,.37c.24,.25,.36,.55,.36,.92v.91l-.32-.06c.13-.24,.31-.5,.55-.77,.24-.27,.52-.53,.84-.77,.32-.24,.69-.43,1.1-.58s.85-.22,1.33-.22Z"/><path class="cls-2" d="M196.11,172.25c0,1.15-.26,2.17-.77,3.04s-1.2,1.56-2.06,2.05c-.86,.49-1.83,.74-2.9,.74s-2.03-.25-2.9-.74-1.55-1.18-2.06-2.05-.77-1.89-.77-3.04,.26-2.17,.77-3.04c.51-.88,1.2-1.57,2.06-2.06,.86-.5,1.83-.75,2.9-.75s2.03,.25,2.9,.75c.86,.5,1.55,1.19,2.06,2.06,.51,.88,.77,1.89,.77,3.04Zm-10.03,6.32c-.31,0-.57-.11-.77-.33-.2-.22-.3-.45-.3-.71,0-.28,.09-.52,.27-.72l8.59-10.09c.21-.25,.48-.38,.8-.38,.28,0,.53,.1,.75,.31,.22,.2,.33,.45,.33,.75,0,.25-.09,.48-.27,.7l-8.59,10.09c-.21,.25-.48,.38-.8,.38Zm7.5-6.32c0-.72-.14-1.34-.43-1.86s-.67-.94-1.16-1.23-1.02-.44-1.61-.44-1.13,.15-1.61,.44-.87,.71-1.16,1.23c-.29,.53-.43,1.15-.43,1.86s.14,1.32,.43,1.84c.29,.53,.67,.94,1.16,1.23s1.02,.44,1.61,.44,1.13-.15,1.61-.44,.87-.71,1.16-1.23c.29-.53,.43-1.14,.43-1.84Z"/><path class="cls-2" d="M206.58,166.61c.37,0,.67,.12,.91,.37,.24,.25,.36,.55,.36,.92v8.95c0,1.29-.24,2.32-.73,3.09s-1.13,1.32-1.95,1.65-1.73,.51-2.74,.51c-.45,0-.93-.04-1.43-.11-.5-.07-.92-.18-1.24-.32-.42-.18-.71-.41-.88-.68-.16-.27-.19-.57-.09-.88,.13-.41,.33-.68,.61-.83,.28-.15,.58-.17,.88-.05,.22,.07,.52,.18,.88,.33s.79,.22,1.26,.22c.65,0,1.18-.09,1.61-.26,.43-.18,.75-.47,.97-.88,.22-.42,.33-.98,.33-1.7v-1.41l.44,.51c-.24,.46-.54,.85-.89,1.15-.36,.3-.78,.53-1.27,.68-.49,.15-1.05,.23-1.69,.23-.74,0-1.39-.17-1.95-.52s-.99-.82-1.29-1.43c-.31-.61-.46-1.31-.46-2.1v-6.15c0-.37,.12-.67,.36-.92,.24-.25,.54-.37,.91-.37s.67,.12,.91,.37c.24,.25,.36,.55,.36,.92v5.39c0,.91,.2,1.56,.6,1.93,.4,.37,.96,.56,1.67,.56,.49,0,.91-.09,1.24-.28,.34-.19,.6-.47,.78-.84,.18-.37,.27-.83,.27-1.36v-5.39c0-.37,.12-.67,.36-.92,.24-.25,.54-.37,.91-.37Z"/><path class="cls-2" d="M219.6,162.29c.36,0,.67,.12,.91,.36,.24,.24,.36,.55,.36,.93v13.02c0,.37-.12,.67-.36,.92-.24,.25-.54,.37-.91,.37s-.67-.12-.91-.37c-.24-.25-.36-.55-.36-.92v-1.03l.46,.19c0,.18-.1,.4-.29,.66-.2,.26-.46,.52-.8,.77s-.73,.47-1.19,.64c-.46,.18-.95,.26-1.49,.26-.97,0-1.85-.25-2.63-.75-.79-.5-1.41-1.19-1.86-2.06-.46-.88-.68-1.88-.68-3.02s.23-2.17,.68-3.04c.46-.88,1.07-1.57,1.84-2.06,.77-.5,1.63-.75,2.57-.75,.6,0,1.16,.09,1.66,.27,.5,.18,.94,.41,1.32,.7s.66,.57,.86,.85c.2,.29,.31,.53,.31,.73l-.76,.27v-5.65c0-.36,.12-.67,.36-.92,.24-.25,.54-.37,.91-.37Zm-4.25,13.48c.62,0,1.16-.15,1.62-.46,.46-.31,.83-.73,1.08-1.26,.26-.53,.39-1.13,.39-1.79s-.13-1.28-.39-1.81c-.26-.53-.62-.96-1.08-1.26-.46-.31-1-.46-1.62-.46s-1.14,.16-1.6,.46c-.46,.31-.83,.73-1.08,1.26-.26,.53-.39,1.14-.39,1.81s.13,1.26,.39,1.79c.26,.53,.62,.96,1.08,1.26,.46,.31,1,.46,1.6,.46Z"/><path class="cls-2" d="M146.3,203.36c-1.07,0-2.06-.2-2.99-.59-.93-.39-1.74-.94-2.44-1.63s-1.25-1.5-1.65-2.41c-.4-.91-.6-1.9-.6-2.95s.2-2.04,.6-2.95c.4-.91,.95-1.72,1.65-2.41s1.52-1.24,2.44-1.63c.93-.39,1.92-.59,2.99-.59,.66,0,1.3,.07,1.92,.21,.62,.14,1.19,.35,1.71,.63,.21,.11,.37,.26,.47,.45s.16,.38,.16,.58c0,.34-.11,.64-.34,.91-.23,.27-.51,.4-.86,.4-.11,0-.23-.01-.35-.04-.12-.03-.24-.07-.35-.13-.35-.15-.72-.27-1.12-.36-.39-.08-.81-.13-1.24-.13-.91,0-1.75,.23-2.5,.68-.75,.46-1.35,1.07-1.79,1.83-.44,.76-.66,1.61-.66,2.54s.22,1.75,.66,2.53,1.04,1.39,1.79,1.84c.75,.46,1.58,.68,2.5,.68,.42,0,.88-.04,1.39-.13,.51-.08,.92-.2,1.24-.34l-.19,.63v-3.6l.36,.32h-2.34c-.37,0-.67-.12-.92-.36-.25-.24-.37-.54-.37-.91s.12-.67,.37-.91c.25-.24,.55-.36,.92-.36h3.46c.36,0,.67,.12,.91,.37,.24,.25,.36,.55,.36,.92v4.47c0,.28-.07,.51-.2,.7-.13,.18-.28,.33-.45,.44-.65,.39-1.35,.71-2.12,.94s-1.57,.35-2.41,.35Z"/><path class="cls-2" d="M163.21,191.67c.36,0,.67,.12,.91,.36,.24,.24,.36,.55,.36,.93v8.91c0,.37-.12,.67-.36,.92-.24,.25-.54,.37-.91,.37s-.67-.12-.91-.37c-.24-.25-.36-.55-.36-.92v-1.03l.46,.19c0,.18-.1,.4-.29,.66-.2,.26-.46,.52-.8,.77s-.73,.47-1.19,.64c-.46,.18-.95,.26-1.49,.26-.97,0-1.85-.25-2.63-.75-.79-.5-1.41-1.19-1.86-2.06-.46-.88-.68-1.88-.68-3.02s.23-2.17,.68-3.04c.46-.88,1.07-1.57,1.84-2.06,.77-.5,1.63-.75,2.57-.75,.6,0,1.16,.09,1.66,.27,.5,.18,.94,.41,1.32,.7s.66,.57,.86,.85c.2,.29,.31,.53,.31,.73l-.76,.27v-1.54c0-.36,.12-.67,.36-.92,.24-.25,.54-.37,.91-.37Zm-4.25,9.37c.62,0,1.16-.15,1.62-.46,.46-.31,.83-.73,1.08-1.26,.26-.53,.39-1.13,.39-1.79s-.13-1.28-.39-1.81c-.26-.53-.62-.96-1.08-1.26-.46-.31-1-.46-1.62-.46s-1.14,.16-1.6,.46c-.46,.31-.83,.73-1.08,1.26-.26,.53-.39,1.14-.39,1.81s.13,1.26,.39,1.79c.26,.53,.62,.96,1.08,1.26,.46,.31,1,.46,1.6,.46Z"/><path class="cls-2" d="M168.48,203.15c-.37,0-.67-.12-.91-.37-.24-.25-.36-.55-.36-.92v-8.7c0-.37,.12-.67,.36-.92,.24-.25,.54-.37,.91-.37s.67,.12,.91,.37c.24,.25,.36,.55,.36,.92v1.98l-.15-1.41c.15-.34,.35-.63,.6-.89s.52-.48,.83-.65,.64-.31,.99-.39c.35-.08,.7-.13,1.05-.13,.42,0,.78,.12,1.06,.36,.29,.24,.43,.52,.43,.84,0,.46-.12,.8-.36,1-.24,.2-.5,.3-.78,.3-.27,0-.51-.05-.73-.15-.22-.1-.47-.15-.75-.15-.25,0-.51,.06-.77,.18s-.5,.31-.72,.56c-.22,.25-.39,.57-.53,.94s-.2,.81-.2,1.32v4.99c0,.37-.12,.67-.36,.92-.24,.25-.54,.37-.91,.37Z"/><path class="cls-2" d="M185.22,191.67c.36,0,.67,.12,.91,.36,.24,.24,.36,.55,.36,.93v8.91c0,.37-.12,.67-.36,.92-.24,.25-.54,.37-.91,.37s-.67-.12-.91-.37c-.24-.25-.36-.55-.36-.92v-1.03l.46,.19c0,.18-.1,.4-.29,.66-.2,.26-.46,.52-.8,.77s-.73,.47-1.19,.64c-.46,.18-.95,.26-1.49,.26-.97,0-1.85-.25-2.63-.75-.79-.5-1.41-1.19-1.86-2.06-.46-.88-.68-1.88-.68-3.02s.23-2.17,.68-3.04c.46-.88,1.07-1.57,1.84-2.06,.77-.5,1.63-.75,2.57-.75,.6,0,1.16,.09,1.66,.27,.5,.18,.94,.41,1.32,.7s.66,.57,.86,.85c.2,.29,.31,.53,.31,.73l-.76,.27v-1.54c0-.36,.12-.67,.36-.92,.24-.25,.54-.37,.91-.37Zm-4.25,9.37c.62,0,1.16-.15,1.62-.46,.46-.31,.83-.73,1.08-1.26,.26-.53,.39-1.13,.39-1.79s-.13-1.28-.39-1.81c-.26-.53-.62-.96-1.08-1.26-.46-.31-1-.46-1.62-.46s-1.14,.16-1.6,.46c-.46,.31-.83,.73-1.08,1.26-.26,.53-.39,1.14-.39,1.81s.13,1.26,.39,1.79c.26,.53,.62,.96,1.08,1.26,.46,.31,1,.46,1.6,.46Z"/><path class="cls-2" d="M195.25,191.67c1.04,0,1.83,.22,2.37,.65,.54,.44,.91,1.01,1.12,1.74,.2,.72,.3,1.53,.3,2.41v5.39c0,.37-.12,.67-.36,.92-.24,.25-.54,.37-.91,.37s-.67-.12-.91-.37c-.24-.25-.36-.55-.36-.92v-5.39c0-.46-.06-.88-.18-1.25-.12-.37-.33-.67-.64-.9-.31-.22-.75-.34-1.33-.34s-1.04,.11-1.42,.34c-.39,.23-.68,.52-.88,.9s-.31,.79-.31,1.25v5.39c0,.37-.12,.67-.36,.92-.24,.25-.54,.37-.91,.37s-.67-.12-.91-.37c-.24-.25-.36-.55-.36-.92v-8.7c0-.37,.12-.67,.36-.92,.24-.25,.54-.37,.91-.37s.67,.12,.91,.37c.24,.25,.36,.55,.36,.92v.91l-.32-.06c.13-.24,.31-.5,.55-.77,.24-.27,.52-.53,.84-.77,.32-.24,.69-.43,1.1-.58s.85-.22,1.33-.22Z"/><path class="cls-2" d="M201.9,192.1h4.99c.34,0,.62,.11,.84,.34s.34,.51,.34,.84-.11,.59-.34,.81c-.22,.22-.5,.33-.84,.33h-4.99c-.34,0-.62-.11-.84-.34-.23-.22-.34-.51-.34-.84s.11-.59,.34-.81c.22-.22,.5-.33,.84-.33Zm2.25-2.63c.37,0,.66,.12,.9,.37,.23,.25,.35,.55,.35,.92v9.37c0,.2,.04,.36,.12,.48,.08,.13,.18,.22,.32,.27,.13,.06,.28,.08,.43,.08,.17,0,.32-.03,.46-.09,.14-.06,.3-.09,.48-.09,.2,0,.38,.09,.54,.27,.16,.18,.24,.44,.24,.76,0,.39-.21,.72-.64,.97s-.89,.38-1.38,.38c-.29,0-.62-.02-.98-.07-.36-.05-.69-.17-1.01-.36s-.58-.48-.79-.87c-.21-.39-.32-.93-.32-1.62v-9.48c0-.37,.12-.67,.37-.92,.25-.25,.55-.37,.92-.37Z"/><path class="cls-2" d="M211.49,190.52c-.48,0-.82-.08-1.01-.23s-.29-.43-.29-.82v-.4c0-.41,.11-.68,.33-.83,.22-.15,.55-.22,1-.22,.49,0,.84,.08,1.03,.23s.29,.43,.29,.82v.4c0,.41-.11,.68-.32,.83-.21,.15-.56,.22-1.03,.22Zm1.28,11.35c0,.37-.12,.67-.36,.92-.24,.25-.54,.37-.91,.37s-.67-.12-.91-.37c-.24-.25-.36-.55-.36-.92v-8.7c0-.37,.12-.67,.36-.92,.24-.25,.54-.37,.91-.37s.67,.12,.91,.37c.24,.25,.36,.55,.36,.92v8.7Z"/></g></g></svg>