<?xml version="1.0" encoding="UTF-8"?><svg id="Layer_2" xmlns="http://www.w3.org/2000/svg" viewBox="0 0 123.67 59.92"><defs><style>.cls-1,.cls-2{fill:#0d1b1e;}.cls-2{stroke:#0d1b1e;stroke-miterlimit:10;stroke-width:.5px;}</style></defs><g id="Layer_1-2"><g><path class="cls-2" d="M15.1,6.5c.56,0,1.02,.18,1.38,.54,.36,.36,.54,.83,.54,1.41v13.57c0,.56-.18,1.02-.54,1.39-.36,.38-.82,.56-1.38,.56s-1.02-.19-1.38-.56c-.36-.37-.54-.84-.54-1.39v-1.57l.71,.29c0,.28-.15,.62-.45,1.01s-.71,.79-1.22,1.17c-.51,.38-1.12,.71-1.81,.98-.7,.27-1.45,.4-2.26,.4-1.47,0-2.81-.38-4.01-1.14s-2.14-1.81-2.84-3.14c-.7-1.34-1.04-2.87-1.04-4.6s.35-3.3,1.04-4.63c.69-1.34,1.63-2.38,2.8-3.14s2.48-1.14,3.91-1.14c.92,0,1.76,.14,2.54,.42,.77,.28,1.44,.63,2,1.06s1,.86,1.31,1.3c.31,.44,.46,.81,.46,1.11l-1.15,.42v-2.34c0-.56,.18-1.02,.54-1.39s.82-.56,1.38-.56Zm-6.48,14.27c.94,0,1.76-.24,2.47-.71,.71-.47,1.26-1.11,1.65-1.92,.4-.81,.59-1.72,.59-2.73s-.2-1.95-.59-2.76c-.39-.81-.95-1.45-1.65-1.92-.71-.47-1.53-.71-2.47-.71s-1.73,.24-2.44,.71c-.71,.47-1.26,1.11-1.65,1.92-.4,.81-.59,1.73-.59,2.76s.2,1.91,.59,2.73c.39,.81,.95,1.45,1.65,1.92,.71,.47,1.52,.71,2.44,.71Z"/><path class="cls-2" d="M20.2,21.32c-.21-.3-.31-.68-.29-1.15,.02-.47,.3-.88,.83-1.22,.34-.21,.71-.3,1.09-.27s.76,.23,1.12,.59c.62,.62,1.27,1.1,1.96,1.44,.68,.34,1.54,.51,2.57,.51,.32-.02,.67-.07,1.06-.14,.38-.07,.72-.25,1.01-.51s.43-.68,.43-1.24c0-.47-.16-.84-.48-1.12-.32-.28-.74-.51-1.27-.71-.53-.19-1.11-.37-1.75-.55-.66-.19-1.34-.41-2.04-.64s-1.33-.54-1.91-.91c-.58-.37-1.05-.87-1.41-1.49-.37-.62-.54-1.4-.54-2.34,0-1.07,.3-1.98,.9-2.73,.6-.75,1.37-1.33,2.33-1.73,.95-.41,1.95-.61,3-.61,.66,0,1.36,.08,2.08,.24s1.42,.42,2.08,.77c.66,.35,1.22,.82,1.67,1.4,.24,.32,.38,.71,.42,1.15,.04,.45-.16,.86-.61,1.22-.32,.26-.7,.37-1.12,.34s-.78-.18-1.06-.43c-.36-.47-.85-.84-1.46-1.12-.61-.28-1.31-.42-2.1-.42-.32,0-.67,.04-1.04,.11-.38,.08-.7,.24-.98,.48s-.42,.64-.42,1.17c0,.49,.16,.88,.48,1.17,.32,.29,.75,.52,1.3,.71,.54,.18,1.13,.36,1.75,.53,.64,.17,1.29,.37,1.96,.61,.66,.24,1.27,.54,1.83,.93,.56,.38,1.01,.88,1.35,1.49s.51,1.38,.51,2.33c0,1.09-.32,2.02-.96,2.79s-1.44,1.35-2.4,1.75c-.96,.4-1.95,.59-2.95,.59-1.26,0-2.52-.22-3.78-.66-1.26-.44-2.31-1.21-3.14-2.33Z"/><path class="cls-2" d="M45.53,6.5c1.5,0,2.84,.38,4.02,1.14,1.19,.76,2.13,1.8,2.82,3.13,.7,1.33,1.04,2.87,1.04,4.62s-.35,3.3-1.04,4.63c-.7,1.34-1.62,2.38-2.79,3.14-1.17,.76-2.47,1.14-3.93,1.14-.86,0-1.66-.14-2.4-.42-.75-.28-1.41-.63-1.97-1.06s-1.01-.86-1.31-1.3c-.31-.44-.46-.81-.46-1.11l.99-.42v8.43c0,.56-.18,1.02-.54,1.39-.37,.37-.82,.56-1.38,.56s-1.02-.18-1.38-.55c-.37-.36-.54-.83-.54-1.41V8.78c0-.56,.18-1.02,.54-1.39,.36-.37,.82-.56,1.38-.56s1.01,.19,1.38,.56c.36,.37,.54,.84,.54,1.39v1.57l-.54-.29c0-.28,.15-.61,.45-1.01,.3-.4,.71-.79,1.22-1.19,.51-.4,1.11-.72,1.78-.98s1.38-.38,2.13-.38Zm-.48,3.53c-.94,0-1.76,.24-2.47,.71-.71,.47-1.26,1.11-1.65,1.91-.39,.8-.59,1.71-.59,2.74s.2,1.92,.59,2.74c.4,.82,.95,1.47,1.65,1.94,.71,.47,1.53,.71,2.47,.71s1.76-.24,2.45-.71c.7-.47,1.24-1.12,1.64-1.94,.39-.82,.59-1.74,.59-2.74s-.2-1.94-.59-2.74c-.4-.8-.94-1.44-1.64-1.91-.69-.47-1.51-.71-2.45-.71Z"/><path class="cls-2" d="M64.55,24.3c-1.82,0-3.39-.38-4.73-1.14s-2.36-1.79-3.08-3.09-1.07-2.78-1.07-4.43c0-1.92,.39-3.56,1.17-4.92,.78-1.36,1.8-2.4,3.06-3.13,1.26-.73,2.6-1.09,4.01-1.09,1.09,0,2.12,.22,3.09,.67,.97,.45,1.83,1.06,2.58,1.84s1.34,1.68,1.78,2.71c.44,1.03,.66,2.12,.66,3.27-.02,.51-.22,.93-.61,1.25s-.83,.48-1.35,.48h-12.25l-.96-3.21h11.77l-.71,.64v-.87c-.04-.62-.26-1.18-.66-1.67-.4-.49-.89-.88-1.48-1.17-.59-.29-1.21-.43-1.88-.43s-1.24,.09-1.8,.26-1.04,.46-1.44,.87-.73,.95-.96,1.63c-.24,.68-.35,1.55-.35,2.6,0,1.15,.24,2.13,.72,2.93,.48,.8,1.1,1.41,1.86,1.83,.76,.42,1.57,.62,2.42,.62,.79,0,1.42-.06,1.89-.19s.85-.28,1.14-.46,.55-.34,.79-.46c.38-.19,.75-.29,1.09-.29,.47,0,.86,.16,1.17,.48,.31,.32,.46,.69,.46,1.12,0,.58-.3,1.1-.9,1.57-.55,.47-1.34,.88-2.34,1.24-1.01,.35-2.04,.53-3.11,.53Z"/><path class="cls-2" d="M75.84,6.82c.4,0,.78,.1,1.12,.3,.34,.2,.6,.51,.77,.91l4.71,10.78-.71,.32,4.81-11.06c.36-.85,.93-1.26,1.7-1.22,.53,0,.97,.17,1.3,.5,.33,.33,.5,.74,.5,1.23,0,.15-.03,.31-.08,.48-.05,.17-.11,.33-.18,.48l-6,13.21c-.34,.77-.89,1.18-1.64,1.22-.41,.06-.8-.01-1.17-.22-.38-.21-.66-.54-.85-.99l-5.96-13.21c-.04-.11-.09-.25-.14-.42-.05-.17-.08-.37-.08-.61,0-.38,.17-.76,.51-1.14,.34-.37,.8-.56,1.38-.56Z"/><path class="cls-2" d="M94.76,4.74c-.73,0-1.24-.12-1.54-.35-.3-.24-.45-.65-.45-1.25v-.61c0-.62,.16-1.04,.5-1.27s.84-.34,1.52-.34c.75,0,1.27,.12,1.57,.35,.3,.24,.45,.65,.45,1.25v.61c0,.62-.16,1.04-.48,1.27-.32,.22-.84,.34-1.57,.34Zm1.96,17.29c0,.56-.18,1.02-.54,1.39-.36,.38-.82,.56-1.38,.56s-1.02-.19-1.38-.56c-.36-.37-.54-.84-.54-1.39V8.78c0-.56,.18-1.02,.54-1.39s.82-.56,1.38-.56,1.02,.19,1.38,.56,.54,.84,.54,1.39v13.25Z"/><path class="cls-2" d="M102.9,23.98c-.55,0-1.02-.19-1.38-.56-.36-.37-.54-.84-.54-1.39V2.21c0-.56,.18-1.02,.54-1.4s.82-.56,1.38-.56,1.02,.19,1.38,.56,.55,.84,.55,1.4V22.03c0,.56-.18,1.02-.55,1.39-.36,.38-.82,.56-1.38,.56Zm10.2-17.16c.49,0,.92,.2,1.28,.61,.36,.41,.55,.8,.55,1.19,0,.51-.26,.99-.77,1.44l-9.65,8.88-.16-4.42,7.34-7.09c.41-.41,.88-.61,1.41-.61Zm.48,17.12c-.56,0-1.03-.21-1.41-.64l-5.93-6.29,2.92-2.69,5.77,6.29c.4,.43,.61,.91,.61,1.44s-.22,1.01-.66,1.36c-.44,.35-.87,.53-1.3,.53Z"/></g><g><path class="cls-2" d="M15.46,29.53c.56,0,1.02,.18,1.38,.55s.54,.83,.54,1.41v19.82c0,.56-.18,1.02-.54,1.39-.36,.38-.82,.56-1.38,.56s-1.02-.19-1.38-.56c-.36-.37-.54-.84-.54-1.39v-1.57l.71,.29c0,.28-.15,.62-.45,1.01s-.71,.79-1.22,1.17c-.51,.38-1.12,.71-1.81,.98-.7,.27-1.45,.4-2.26,.4-1.47,0-2.81-.38-4.01-1.14s-2.14-1.81-2.84-3.14c-.7-1.34-1.04-2.87-1.04-4.6s.35-3.3,1.04-4.63c.69-1.34,1.63-2.38,2.8-3.14s2.48-1.14,3.91-1.14c.92,0,1.76,.14,2.54,.42,.77,.28,1.44,.63,2,1.06s1,.86,1.31,1.3c.31,.44,.46,.81,.46,1.11l-1.15,.42v-8.59c0-.56,.18-1.02,.54-1.4s.82-.56,1.38-.56Zm-6.48,20.52c.94,0,1.76-.24,2.47-.71,.71-.47,1.26-1.11,1.65-1.92,.4-.81,.59-1.72,.59-2.73s-.2-1.95-.59-2.76c-.39-.81-.95-1.45-1.65-1.92-.71-.47-1.53-.71-2.47-.71s-1.73,.24-2.44,.71c-.71,.47-1.26,1.11-1.65,1.92-.4,.81-.59,1.73-.59,2.76s.2,1.91,.59,2.73c.39,.81,.95,1.45,1.65,1.92,.71,.47,1.52,.71,2.44,.71Z"/><path class="cls-2" d="M29.48,53.58c-1.82,0-3.39-.38-4.73-1.14s-2.36-1.79-3.08-3.09-1.07-2.78-1.07-4.43c0-1.92,.39-3.56,1.17-4.92,.78-1.36,1.8-2.4,3.06-3.13,1.26-.73,2.6-1.09,4.01-1.09,1.09,0,2.12,.22,3.09,.67,.97,.45,1.83,1.06,2.58,1.84s1.34,1.68,1.78,2.71c.44,1.03,.66,2.12,.66,3.27-.02,.51-.22,.93-.61,1.25s-.83,.48-1.35,.48h-12.25l-.96-3.21h11.77l-.71,.64v-.87c-.04-.62-.26-1.18-.66-1.67-.4-.49-.89-.88-1.48-1.17-.59-.29-1.21-.43-1.88-.43s-1.24,.09-1.8,.26-1.04,.46-1.44,.87-.73,.95-.96,1.63c-.24,.68-.35,1.55-.35,2.6,0,1.15,.24,2.13,.72,2.93,.48,.8,1.1,1.41,1.86,1.83,.76,.42,1.57,.62,2.42,.62,.79,0,1.42-.06,1.89-.19s.85-.28,1.14-.46,.55-.34,.79-.46c.38-.19,.75-.29,1.09-.29,.47,0,.86,.16,1.17,.48,.31,.32,.46,.69,.46,1.12,0,.58-.3,1.1-.9,1.57-.55,.47-1.34,.88-2.34,1.24-1.01,.35-2.04,.53-3.11,.53Z"/><path class="cls-2" d="M39.16,50.6c-.21-.3-.31-.68-.29-1.15,.02-.47,.3-.88,.83-1.22,.34-.21,.71-.3,1.09-.27s.76,.23,1.12,.59c.62,.62,1.27,1.1,1.96,1.44,.68,.34,1.54,.51,2.57,.51,.32-.02,.67-.07,1.06-.14,.38-.07,.72-.25,1.01-.51s.43-.68,.43-1.24c0-.47-.16-.84-.48-1.12-.32-.28-.74-.51-1.27-.71-.53-.19-1.11-.37-1.75-.55-.66-.19-1.34-.41-2.04-.64s-1.33-.54-1.91-.91c-.58-.37-1.05-.87-1.41-1.49-.37-.62-.54-1.4-.54-2.34,0-1.07,.3-1.98,.9-2.73,.6-.75,1.37-1.33,2.33-1.73,.95-.41,1.95-.61,3-.61,.66,0,1.36,.08,2.08,.24s1.42,.42,2.08,.77c.66,.35,1.22,.82,1.67,1.4,.24,.32,.38,.71,.42,1.15,.04,.45-.16,.86-.61,1.22-.32,.26-.7,.37-1.12,.34s-.78-.18-1.06-.43c-.36-.47-.85-.84-1.46-1.12-.61-.28-1.31-.42-2.1-.42-.32,0-.67,.04-1.04,.11-.38,.08-.7,.24-.98,.48s-.42,.64-.42,1.17c0,.49,.16,.88,.48,1.17,.32,.29,.75,.52,1.3,.71,.54,.18,1.13,.36,1.75,.53,.64,.17,1.29,.37,1.96,.61,.66,.24,1.27,.54,1.83,.93,.56,.38,1.01,.88,1.35,1.49s.51,1.38,.51,2.33c0,1.09-.32,2.02-.96,2.79s-1.44,1.35-2.4,1.75c-.96,.4-1.95,.59-2.95,.59-1.26,0-2.52-.22-3.78-.66-1.26-.44-2.31-1.21-3.14-2.33Z"/><path class="cls-2" d="M57.28,34.02c-.73,0-1.24-.12-1.54-.35s-.45-.65-.45-1.25v-.61c0-.62,.17-1.04,.5-1.27,.33-.22,.84-.34,1.52-.34,.75,0,1.27,.12,1.57,.35,.3,.24,.45,.65,.45,1.25v.61c0,.62-.16,1.04-.48,1.27s-.85,.34-1.57,.34Zm1.96,17.29c0,.56-.18,1.02-.54,1.39-.36,.38-.82,.56-1.38,.56s-1.02-.19-1.38-.56c-.37-.37-.54-.84-.54-1.39v-13.25c0-.56,.18-1.02,.54-1.39,.36-.37,.82-.56,1.38-.56s1.02,.19,1.38,.56,.54,.84,.54,1.39v13.25Z"/><path class="cls-2" d="M70.14,35.78c.9,0,1.72,.14,2.47,.42,.75,.28,1.39,.63,1.94,1.06s.97,.86,1.28,1.3c.31,.44,.46,.81,.46,1.11l-.83,.42v-2.34c0-.56,.18-1.02,.54-1.39s.82-.56,1.38-.56,1.02,.18,1.38,.54c.36,.36,.54,.83,.54,1.41v14.27c0,1.86-.4,3.35-1.2,4.47-.8,1.12-1.86,1.93-3.16,2.44-1.3,.5-2.7,.75-4.2,.75-.43,0-.98-.05-1.67-.16-.69-.11-1.34-.24-1.96-.39-.62-.15-1.09-.29-1.41-.42-.64-.28-1.09-.63-1.33-1.04s-.29-.86-.14-1.33c.19-.62,.5-1.04,.93-1.27,.43-.22,.88-.25,1.35-.08,.21,.06,.57,.19,1.06,.38s1.03,.37,1.62,.53,1.11,.24,1.55,.24c1.6,0,2.79-.32,3.56-.96,.77-.64,1.15-1.53,1.15-2.66v-2.79l.38,.29c0,.28-.14,.62-.43,1.01-.29,.4-.68,.79-1.19,1.17s-1.1,.71-1.78,.98c-.69,.27-1.41,.4-2.18,.4-1.52,0-2.89-.38-4.1-1.14-1.22-.76-2.18-1.81-2.89-3.14-.71-1.34-1.06-2.87-1.06-4.6s.35-3.3,1.06-4.63,1.66-2.38,2.85-3.14,2.53-1.14,4.01-1.14Zm.61,3.53c-.96,0-1.81,.24-2.53,.71-.73,.47-1.29,1.11-1.7,1.92s-.61,1.73-.61,2.76,.2,1.91,.61,2.73c.41,.81,.97,1.45,1.7,1.92,.73,.47,1.57,.71,2.53,.71s1.84-.24,2.57-.71c.73-.47,1.29-1.11,1.7-1.92,.41-.81,.61-1.72,.61-2.73s-.2-1.95-.61-2.76-.97-1.45-1.7-1.92c-.73-.47-1.58-.71-2.57-.71Z"/><path class="cls-2" d="M92.65,35.78c1.58,0,2.79,.33,3.61,.99,.82,.66,1.39,1.54,1.7,2.65,.31,1.1,.46,2.33,.46,3.67v8.21c0,.56-.18,1.02-.54,1.39-.36,.38-.82,.56-1.38,.56s-1.02-.19-1.38-.56c-.37-.37-.54-.84-.54-1.39v-8.21c0-.71-.09-1.34-.27-1.91-.18-.57-.51-1.02-.98-1.36s-1.14-.51-2.02-.51-1.58,.17-2.16,.51c-.59,.34-1.04,.8-1.35,1.36-.31,.57-.46,1.2-.46,1.91v8.21c0,.56-.18,1.02-.54,1.39-.37,.38-.82,.56-1.38,.56s-1.02-.19-1.38-.56c-.37-.37-.54-.84-.54-1.39v-13.25c0-.56,.18-1.02,.54-1.39,.36-.37,.82-.56,1.38-.56s1.01,.19,1.38,.56c.36,.37,.54,.84,.54,1.39v1.38l-.48-.1c.19-.36,.47-.75,.83-1.17,.36-.42,.79-.81,1.28-1.17s1.05-.66,1.67-.88c.62-.22,1.29-.34,2.02-.34Z"/></g><circle class="cls-1" cx="115.69" cy="45.71" r="7.98"/></g></svg>