<?xml version="1.0" encoding="UTF-8"?><svg id="Layer_2" xmlns="http://www.w3.org/2000/svg" viewBox="0 0 35.52 40.3"><defs><style>.cls-1{fill:#0d1b1e;fill-rule:evenodd;}</style></defs><g id="Layer_1-2"><g id="minus_simple"><path class="cls-1" d="M17.69,0c-1.23,0-2.23,1-2.23,2.23v31.25c0,1.23,1,2.23,2.23,2.23s2.23-1,2.23-2.23V2.23c0-1.23-1-2.23-2.23-2.23Z"/></g><g id="arrow_simple_shock"><path class="cls-1" d="M34.87,21.21c-.87-.86-2.27-.86-3.14,0l-13.97,13.8L3.79,21.21c-.87-.86-2.27-.86-3.14,0s-.87,2.24,0,3.1l15.54,15.35c.87,.86,2.27,.86,3.14,0l15.54-15.35c.43-.43,.65-.99,.65-1.55s-.22-1.12-.65-1.55Z"/></g></g></svg>