<?xml version="1.0" encoding="UTF-8"?><svg id="Layer_2" xmlns="http://www.w3.org/2000/svg" xmlns:xlink="http://www.w3.org/1999/xlink" viewBox="0 0 1760.05 705.28"><defs><style>.cls-1{fill:url(#linear-gradient);}.cls-2,.cls-3{fill:#f6f1f0;}.cls-4,.cls-5{fill:#0d1b1e;}.cls-5{stroke:#0d1b1e;}.cls-5,.cls-3{stroke-miterlimit:10;}.cls-6{fill:url(#linear-gradient-2);}.cls-7{opacity:.25;}.cls-8{opacity:.5;}.cls-3{stroke:#f6f1f0;stroke-width:3px;}</style><linearGradient id="linear-gradient" x1="7462.75" y1="264.41" x2="7462.75" y2="54.41" gradientTransform="translate(-6518.94 388.87)" gradientUnits="userSpaceOnUse"><stop offset="0" stop-color="#0d1b1e" stop-opacity="0"/><stop offset=".24" stop-color="#0d1b1e" stop-opacity=".39"/><stop offset=".64" stop-color="#0d1b1e" stop-opacity=".84"/><stop offset="1" stop-color="#0d1b1e"/></linearGradient><linearGradient id="linear-gradient-2" x1="11848.75" y1="1135.41" x2="11848.75" y2="925.41" gradientTransform="translate(-10882.94 -869.13)" xlink:href="#linear-gradient"/></defs><g id="Layer_1-2"><path class="cls-5" d="M1758.55,41.22V662.77c0,22.5-18.24,40.73-40.73,40.73H42.22c-22.49,0-40.72-18.23-40.72-40.72V41.23C1.5,18.74,19.74,.5,42.23,.5H1717.83c22.49,0,40.72,18.23,40.72,40.72Z"/><circle class="cls-2" cx="330.8" cy="412" r="39.5"/><circle class="cls-2" cx="218.8" cy="156" r="54.5"/><path class="cls-3" d="M1326.88,703.78h-214.16c4.81-54.92,50.91-98,107.08-98s102.27,43.08,107.08,98Z"/><circle class="cls-2" cx="1512.3" cy="473.5" r="22"/><circle class="cls-2" cx="1468.3" cy="104.5" r="52"/><path class="cls-3" d="M1758.55,127.37v255.26c-50.56-20.32-86.25-69.81-86.25-127.63s35.69-107.31,86.25-127.63Z"/><path class="cls-3" d="M83.3,648.5c0,22.18-10.17,41.99-26.11,55H12.61c-6.14,0-11.11-4.98-11.11-11.12v-114.06c3.52-.54,7.13-.82,10.8-.82,39.21,0,71,31.79,71,71Z"/><rect class="cls-2" x="736.75" y="286.27" width="418.56" height="131.5" rx="39.8" ry="39.8"/><g><path class="cls-2" d="M563.09,376.75c-3.81,0-7.19-1.14-10.12-3.43-2.94-2.29-5.13-5.22-6.6-8.8-.12-.35-.18-.65-.18-.88,0-.53,.19-.92,.57-1.19s.78-.4,1.19-.4c.47,0,.82,.1,1.05,.31,.23,.21,.44,.48,.62,.84,1.11,2.93,2.87,5.34,5.28,7.22,2.4,1.88,5.13,2.82,8.18,2.82s5.68-.62,7.88-1.85c2.2-1.23,3.92-2.96,5.15-5.19,1.23-2.23,1.85-4.84,1.85-7.83v-42.33c0-.47,.18-.88,.53-1.23,.35-.35,.82-.53,1.41-.53,.53,0,.95,.18,1.28,.53,.32,.35,.48,.76,.48,1.23v42.33c0,3.64-.78,6.85-2.33,9.64-1.55,2.79-3.73,4.94-6.51,6.47-2.79,1.53-6.03,2.29-9.72,2.29Z"/><path class="cls-2" d="M617.21,376.75c-4.4,0-8.29-.94-11.66-2.82-3.37-1.88-6.03-4.53-7.96-7.96-1.94-3.43-2.9-7.46-2.9-12.1,0-4.93,.95-9.12,2.86-12.58,1.91-3.46,4.37-6.12,7.39-7.96,3.02-1.85,6.23-2.77,9.64-2.77,2.46,0,4.87,.4,7.21,1.19,2.35,.79,4.45,2.02,6.29,3.7,1.85,1.67,3.34,3.75,4.49,6.25,1.14,2.5,1.77,5.47,1.89,8.93,0,.47-.18,.89-.53,1.28-.35,.38-.76,.57-1.23,.57h-35.9l-.53-3.34h35.46l-.88,.79v-1.58c-.29-3.11-1.28-5.72-2.95-7.83s-3.68-3.71-6.03-4.8c-2.35-1.08-4.78-1.63-7.3-1.63-1.76,0-3.61,.4-5.54,1.19s-3.73,2-5.37,3.61c-1.64,1.61-2.98,3.65-4,6.12-1.03,2.46-1.54,5.34-1.54,8.62,0,3.58,.72,6.86,2.16,9.86s3.58,5.4,6.42,7.22c2.85,1.82,6.35,2.73,10.52,2.73,1.99,0,3.87-.34,5.63-1.01,1.76-.67,3.34-1.57,4.75-2.68,1.41-1.11,2.55-2.32,3.43-3.61,.47-.53,.97-.79,1.5-.79,.41,0,.76,.16,1.06,.48,.29,.32,.44,.69,.44,1.1s-.12,.76-.35,1.06c-1.82,2.35-4.15,4.4-7,6.16-2.85,1.76-6,2.64-9.46,2.64Z"/><path class="cls-2" d="M663.76,330.55c2.64,0,5.11,.47,7.39,1.41,2.29,.94,4.3,2.17,6.03,3.7,1.73,1.53,3.08,3.17,4.05,4.93s1.45,3.49,1.45,5.19l-1.14-3.26v-8.8c0-.47,.16-.88,.48-1.23,.32-.35,.75-.53,1.28-.53s.95,.18,1.28,.53c.32,.35,.48,.76,.48,1.23v37.84c0,4.52-.92,8.42-2.77,11.7-1.85,3.29-4.39,5.81-7.61,7.57s-6.98,2.64-11.26,2.64c-2.35,0-4.71-.31-7.08-.92-2.38-.62-4.36-1.39-5.94-2.33s-2.38-1.94-2.38-2.99c0-.47,.13-.85,.4-1.14,.26-.29,.63-.44,1.1-.44,.59,0,1.13,.32,1.63,.97,.5,.64,1.39,1.23,2.68,1.76,.53,.18,1.25,.41,2.16,.7,.91,.29,2.01,.54,3.3,.75,1.29,.21,2.73,.31,4.31,.31,5.57,0,9.96-1.72,13.16-5.15,3.2-3.43,4.8-7.91,4.8-13.42v-8.71l.88,.09c-.7,2.52-1.73,4.66-3.08,6.42-1.35,1.76-2.89,3.18-4.62,4.27-1.73,1.09-3.55,1.88-5.46,2.38s-3.74,.75-5.5,.75c-4.05,0-7.67-1.01-10.87-3.04-3.2-2.02-5.73-4.78-7.61-8.27-1.88-3.49-2.82-7.44-2.82-11.84s.94-8.34,2.82-11.84c1.88-3.49,4.41-6.23,7.61-8.23,3.2-1.99,6.82-2.99,10.87-2.99Zm.18,3.34c-3.4,0-6.47,.85-9.2,2.55-2.73,1.7-4.87,4.03-6.42,7-1.55,2.96-2.33,6.35-2.33,10.16s.78,7.13,2.33,10.12c1.55,2.99,3.7,5.35,6.42,7.08,2.73,1.73,5.79,2.6,9.2,2.6s6.45-.84,9.15-2.51,4.84-3.99,6.43-6.95c1.58-2.96,2.38-6.41,2.38-10.34s-.79-7.38-2.38-10.34c-1.58-2.96-3.73-5.27-6.43-6.91-2.7-1.64-5.75-2.46-9.15-2.46Z"/><path class="cls-4" d="M807.19,310.75c1.06,0,1.91,.34,2.55,1.01,.64,.68,.97,1.54,.97,2.6v57.9c0,1-.34,1.85-1.01,2.55-.68,.7-1.51,1.06-2.51,1.06-1.06,0-1.91-.35-2.55-1.06s-.97-1.55-.97-2.55v-8.36l1.67-.53c0,1.35-.44,2.8-1.32,4.36-.88,1.55-2.08,3.02-3.61,4.4-1.53,1.38-3.33,2.49-5.41,3.34-2.08,.85-4.3,1.28-6.64,1.28-3.99,0-7.58-1.03-10.78-3.08-3.2-2.05-5.72-4.87-7.57-8.45-1.85-3.58-2.77-7.66-2.77-12.23s.92-8.74,2.77-12.32c1.85-3.58,4.36-6.38,7.52-8.4,3.17-2.02,6.69-3.04,10.56-3.04,2.46,0,4.78,.41,6.95,1.23,2.17,.82,4.06,1.94,5.68,3.34,1.61,1.41,2.89,2.96,3.83,4.66,.94,1.7,1.41,3.4,1.41,5.1l-2.29-.53v-28.69c0-1,.32-1.85,.97-2.55,.65-.7,1.5-1.06,2.55-1.06Zm-18.13,59.49c2.99,0,5.6-.75,7.83-2.24,2.23-1.5,3.97-3.55,5.24-6.16,1.26-2.61,1.89-5.56,1.89-8.84s-.63-6.23-1.89-8.84-3.02-4.66-5.28-6.16c-2.26-1.5-4.86-2.24-7.79-2.24s-5.44,.75-7.7,2.24c-2.26,1.5-4.04,3.55-5.32,6.16-1.29,2.61-1.94,5.56-1.94,8.84s.64,6.15,1.94,8.76c1.29,2.61,3.06,4.68,5.32,6.2,2.26,1.53,4.82,2.29,7.7,2.29Z"/><path class="cls-4" d="M844.33,376.75c-4.69,0-8.8-1-12.32-2.99-3.52-1.99-6.26-4.74-8.23-8.23-1.97-3.49-2.95-7.52-2.95-12.1,0-5.1,1.01-9.46,3.04-13.07,2.02-3.61,4.66-6.37,7.92-8.27,3.26-1.91,6.7-2.86,10.34-2.86,2.76,0,5.38,.5,7.88,1.5,2.49,1,4.72,2.46,6.69,4.4,1.96,1.94,3.53,4.22,4.71,6.86s1.79,5.63,1.85,8.98c-.06,.94-.44,1.72-1.14,2.33-.71,.62-1.53,.92-2.46,.92h-34.76l-1.58-6.07h33.88l-1.41,1.23v-1.94c-.24-2.41-1.04-4.47-2.42-6.2-1.38-1.73-3.05-3.07-5.02-4-1.97-.94-4.04-1.41-6.21-1.41-1.76,0-3.51,.32-5.24,.97-1.73,.65-3.29,1.64-4.66,2.99-1.38,1.35-2.48,3.11-3.3,5.28-.82,2.17-1.23,4.78-1.23,7.83,0,3.4,.69,6.39,2.07,8.98,1.38,2.58,3.3,4.62,5.76,6.12,2.46,1.5,5.31,2.24,8.54,2.24,2.11,0,3.92-.26,5.41-.79,1.5-.53,2.8-1.19,3.92-1.98s2.05-1.6,2.82-2.42c.76-.53,1.5-.79,2.2-.79,.88,0,1.61,.29,2.2,.88,.59,.59,.88,1.29,.88,2.11,0,1-.5,1.91-1.5,2.73-1.64,1.82-3.87,3.4-6.69,4.75-2.82,1.35-5.81,2.02-8.98,2.02Z"/><path class="cls-4" d="M870.73,368.66c-.47-.76-.69-1.57-.66-2.42,.03-.85,.51-1.6,1.45-2.24,.64-.41,1.36-.59,2.16-.53,.79,.06,1.51,.44,2.15,1.14,1.64,1.94,3.52,3.48,5.63,4.62,2.11,1.14,4.69,1.72,7.74,1.72,1.35-.06,2.74-.29,4.18-.7,1.44-.41,2.64-1.13,3.61-2.16,.97-1.03,1.45-2.39,1.45-4.09s-.5-2.95-1.5-3.92c-1-.97-2.3-1.76-3.92-2.38-1.62-.62-3.33-1.16-5.15-1.63-1.94-.53-3.84-1.11-5.72-1.76s-3.56-1.48-5.06-2.51c-1.5-1.03-2.7-2.32-3.61-3.87-.91-1.55-1.36-3.48-1.36-5.76,0-2.64,.72-4.93,2.16-6.86,1.44-1.94,3.36-3.43,5.76-4.49,2.4-1.06,5.07-1.58,8.01-1.58,1.64,0,3.36,.19,5.15,.57,1.79,.38,3.53,1.03,5.24,1.94,1.7,.91,3.2,2.16,4.49,3.74,.53,.59,.82,1.32,.88,2.2,.06,.88-.32,1.67-1.14,2.38-.65,.47-1.37,.69-2.16,.66-.79-.03-1.45-.31-1.98-.84-1.29-1.52-2.86-2.68-4.71-3.48-1.85-.79-3.89-1.19-6.12-1.19-1.35,0-2.7,.22-4.05,.66-1.35,.44-2.48,1.13-3.39,2.07-.91,.94-1.37,2.26-1.37,3.96,.06,1.58,.59,2.88,1.58,3.87,1,1,2.35,1.8,4.05,2.42,1.7,.62,3.58,1.22,5.63,1.8,1.88,.47,3.68,1.01,5.41,1.63,1.73,.62,3.3,1.42,4.71,2.42,1.41,1,2.52,2.27,3.34,3.83,.82,1.56,1.23,3.51,1.23,5.85,0,2.7-.76,5.03-2.29,7-1.53,1.97-3.53,3.46-6.03,4.49-2.49,1.03-5.18,1.54-8.05,1.54-3.23,0-6.43-.6-9.59-1.8-3.17-1.2-5.89-3.3-8.18-6.29Z"/><path class="cls-4" d="M918.25,323.78c-1.47,0-2.55-.29-3.26-.88-.7-.59-1.05-1.5-1.05-2.73v-1.23c0-1.23,.38-2.14,1.14-2.73,.76-.59,1.85-.88,3.26-.88s2.46,.29,3.17,.88c.71,.59,1.06,1.5,1.06,2.73v1.23c0,1.23-.37,2.14-1.1,2.73-.73,.59-1.8,.88-3.21,.88Zm3.61,48.49c0,1-.34,1.85-1.01,2.55-.68,.7-1.51,1.06-2.51,1.06-1.05,0-1.92-.35-2.6-1.06s-1.01-1.55-1.01-2.55v-38.98c0-1,.34-1.85,1.01-2.55,.67-.7,1.54-1.06,2.6-1.06,1,0,1.83,.35,2.51,1.06,.67,.7,1.01,1.55,1.01,2.55v38.98Z"/><path class="cls-4" d="M953.18,329.24c2.52,0,4.87,.43,7.04,1.28,2.17,.85,4.06,1.95,5.68,3.3,1.61,1.35,2.87,2.76,3.78,4.22,.91,1.47,1.37,2.85,1.37,4.14l-1.67-1.06v-7.66c0-1,.32-1.83,.97-2.51,.64-.67,1.5-1.01,2.55-1.01s1.91,.34,2.55,1.01c.65,.67,.97,1.51,.97,2.51v38.54c0,4.81-1.01,8.81-3.04,12.01-2.03,3.2-4.74,5.57-8.14,7.13-3.4,1.55-7.19,2.33-11.35,2.33-1.76,0-3.71-.22-5.85-.66-2.14-.44-4.03-1-5.68-1.67-1.64-.67-2.67-1.36-3.08-2.07-.88-.65-1.44-1.32-1.67-2.02s-.12-1.41,.35-2.11c.53-.82,1.22-1.23,2.07-1.23s1.92,.26,3.21,.79c.53,.18,1.36,.47,2.51,.88,1.14,.41,2.45,.78,3.92,1.1,1.46,.32,2.9,.48,4.31,.48,4.93,0,8.72-1.31,11.4-3.92,2.67-2.61,4-6.06,4-10.34v-8.18l.97,.44c-.35,1.64-1.07,3.17-2.16,4.58s-2.39,2.66-3.92,3.74c-1.53,1.09-3.24,1.94-5.15,2.55-1.91,.62-3.83,.92-5.77,.92-4.11,0-7.8-1.03-11.09-3.08-3.29-2.05-5.88-4.87-7.79-8.45-1.91-3.58-2.86-7.66-2.86-12.23s.95-8.74,2.86-12.32c1.91-3.58,4.49-6.38,7.74-8.4,3.26-2.02,6.91-3.04,10.96-3.04Zm.97,6.51c-3.05,0-5.75,.75-8.1,2.24-2.35,1.5-4.2,3.55-5.54,6.16s-2.02,5.56-2.02,8.84,.67,6.15,2.02,8.76c1.35,2.61,3.2,4.68,5.54,6.2,2.35,1.53,5.04,2.29,8.1,2.29s5.66-.75,8.01-2.24c2.35-1.5,4.19-3.53,5.54-6.12,1.35-2.58,2.02-5.54,2.02-8.89s-.68-6.32-2.02-8.93c-1.35-2.61-3.2-4.65-5.54-6.12-2.35-1.47-5.02-2.2-8.01-2.2Z"/><path class="cls-4" d="M1012.05,329.24c3.99,0,7.13,.82,9.42,2.46,2.29,1.64,3.92,3.84,4.88,6.6,.97,2.76,1.45,5.87,1.45,9.33v24.64c0,1-.34,1.85-1.01,2.55s-1.51,1.06-2.51,1.06c-1.06,0-1.91-.35-2.55-1.06-.64-.7-.97-1.55-.97-2.55v-24.46c0-2.23-.34-4.25-1.01-6.07-.68-1.82-1.8-3.27-3.39-4.36-1.58-1.08-3.7-1.63-6.34-1.63-2.46,0-4.72,.54-6.78,1.63-2.05,1.09-3.7,2.54-4.93,4.36-1.23,1.82-1.85,3.84-1.85,6.07v24.46c0,1-.34,1.85-1.01,2.55s-1.51,1.06-2.51,1.06-1.83-.35-2.51-1.06c-.68-.7-1.01-1.55-1.01-2.55v-38.28c0-1.06,.34-1.92,1.01-2.6s1.51-1.01,2.51-1.01c1.06,0,1.91,.34,2.55,1.01,.64,.68,.97,1.54,.97,2.6v6.16l-1.76,1.94c.29-1.52,.97-3.06,2.03-4.62,1.05-1.55,2.38-2.95,3.96-4.18,1.58-1.23,3.34-2.21,5.28-2.95,1.94-.73,3.96-1.1,6.07-1.1Z"/><path class="cls-4" d="M1061.42,376.75c-4.69,0-8.8-1-12.32-2.99-3.52-1.99-6.26-4.74-8.23-8.23-1.97-3.49-2.95-7.52-2.95-12.1,0-5.1,1.01-9.46,3.04-13.07,2.02-3.61,4.66-6.37,7.92-8.27,3.26-1.91,6.7-2.86,10.34-2.86,2.76,0,5.38,.5,7.88,1.5,2.49,1,4.72,2.46,6.69,4.4,1.96,1.94,3.53,4.22,4.71,6.86s1.79,5.63,1.85,8.98c-.06,.94-.44,1.72-1.14,2.33-.71,.62-1.53,.92-2.46,.92h-34.76l-1.58-6.07h33.88l-1.41,1.23v-1.94c-.24-2.41-1.04-4.47-2.42-6.2-1.38-1.73-3.05-3.07-5.02-4-1.97-.94-4.04-1.41-6.21-1.41-1.76,0-3.51,.32-5.24,.97-1.73,.65-3.29,1.64-4.66,2.99-1.38,1.35-2.48,3.11-3.3,5.28-.82,2.17-1.23,4.78-1.23,7.83,0,3.4,.69,6.39,2.07,8.98,1.38,2.58,3.3,4.62,5.76,6.12,2.46,1.5,5.31,2.24,8.54,2.24,2.11,0,3.92-.26,5.41-.79,1.5-.53,2.8-1.19,3.92-1.98s2.05-1.6,2.82-2.42c.76-.53,1.5-.79,2.2-.79,.88,0,1.61,.29,2.2,.88,.59,.59,.88,1.29,.88,2.11,0,1-.5,1.91-1.5,2.73-1.64,1.82-3.87,3.4-6.69,4.75-2.82,1.35-5.81,2.02-8.98,2.02Z"/><path class="cls-4" d="M1093.98,375.87c-1,0-1.83-.35-2.51-1.06-.68-.7-1.01-1.55-1.01-2.55v-38.28c0-1.06,.34-1.92,1.01-2.6s1.51-1.01,2.51-1.01c1.06,0,1.91,.34,2.55,1.01,.64,.68,.97,1.54,.97,2.6v11.53l-1.05-1.85c.35-1.82,.98-3.59,1.89-5.32,.91-1.73,2.07-3.28,3.48-4.66,1.41-1.38,3.02-2.46,4.84-3.26s3.81-1.19,5.98-1.19c1.29,0,2.48,.31,3.56,.92,1.08,.62,1.63,1.48,1.63,2.6,0,1.23-.32,2.16-.97,2.77-.65,.62-1.38,.92-2.2,.92-.76,0-1.5-.18-2.2-.53-.71-.35-1.58-.53-2.64-.53-1.47,0-2.92,.41-4.36,1.23-1.44,.82-2.76,1.95-3.96,3.39-1.2,1.44-2.17,3.08-2.9,4.93-.73,1.85-1.1,3.83-1.1,5.94v21.38c0,1-.34,1.85-1.01,2.55s-1.51,1.06-2.51,1.06Z"/><path class="cls-4" d="M1118.18,375.79c-1.23,0-2.19-.35-2.86-1.06-.67-.7-1.01-1.67-1.01-2.9v-1.76c0-1.29,.34-2.29,1.01-2.99s1.63-1.06,2.86-1.06h.7c1.29,0,2.26,.35,2.9,1.06,.64,.7,.97,1.7,.97,2.99v1.76c0,1.23-.32,2.2-.97,2.9-.65,.7-1.61,1.06-2.9,1.06h-.7Z"/></g><g class="cls-7"><path class="cls-2" d="M855.14,591.63c.5-.18,.96-.15,1.38,.07,.42,.22,.71,.56,.87,1l8.57,24.13c1.91,5.36,1.83,9.92-.23,13.67-2.06,3.75-5.58,6.51-10.55,8.28-4.92,1.75-9.36,1.82-13.33,.21-3.97-1.61-6.9-5.1-8.81-10.46l-8.58-24.13c-.16-.44-.13-.89,.09-1.34,.21-.45,.54-.75,.98-.91,.5-.18,.96-.15,1.38,.07,.42,.22,.71,.56,.87,1l8.57,24.13c1.49,4.2,3.81,6.99,6.94,8.37,3.13,1.38,6.72,1.35,10.75-.09,4.09-1.45,6.92-3.7,8.48-6.75,1.56-3.05,1.6-6.67,.11-10.87l-8.57-24.13c-.16-.44-.14-.88,.04-1.32,.18-.44,.53-.75,1.03-.92Z"/><path class="cls-2" d="M866.63,587.17l19.24-6.84c.44-.16,.87-.12,1.29,.1,.42,.22,.7,.53,.84,.92,.16,.44,.14,.87-.06,1.28-.2,.41-.52,.7-.96,.85l-19.24,6.84c-.39,.14-.81,.1-1.25-.12-.45-.21-.74-.51-.88-.9-.16-.44-.12-.87,.1-1.3,.22-.42,.53-.7,.92-.84Zm4.13-15.2c.5-.18,.96-.15,1.38,.07,.42,.22,.71,.56,.87,1l15.35,43.2c.65,1.82,1.36,3.08,2.13,3.77,.77,.69,1.56,1.03,2.37,1.02,.81,0,1.54-.13,2.21-.36,.38-.14,.7-.31,.94-.52,.24-.21,.55-.38,.94-.52,.39-.14,.77-.1,1.16,.1,.38,.21,.65,.5,.79,.89,.18,.5,0,1.04-.5,1.62-.51,.59-1.23,1.04-2.17,1.38-.33,.12-.93,.32-1.8,.59-.87,.28-1.87,.35-3,.23-1.13-.12-2.25-.69-3.36-1.7-1.11-1.01-2.09-2.73-2.96-5.16l-15.41-43.37c-.16-.44-.13-.89,.09-1.34,.21-.45,.54-.75,.98-.91Z"/><path class="cls-2" d="M894.24,576.05c.28-.1,.6-.1,.97-.02,.37,.09,.67,.27,.9,.57l28.39,31.28-.62,.88,2.33-42.85c.02-.82,.47-1.38,1.36-1.7,.28-.1,.65-.1,1.11-.02,.46,.08,.78,.35,.93,.79,.1,.28,.14,.49,.14,.65,0,.16-.02,.3-.04,.43l-2.47,45.33c-.02,.82-.42,1.36-1.19,1.64-.33,.12-.69,.14-1.06,.05-.37-.09-.67-.27-.9-.57l-30.58-33.5c-.09-.09-.18-.2-.26-.33-.08-.13-.13-.25-.17-.36-.16-.44-.16-.88,0-1.31,.16-.43,.54-.75,1.15-.97Z"/><path class="cls-2" d="M938.9,554.02c-.88,.31-1.68,.32-2.38,0-.7-.31-1.19-.85-1.47-1.63l-.24-.66c-.27-.77-.22-1.51,.15-2.2,.38-.69,1.01-1.2,1.89-1.51,.77-.27,1.51-.26,2.21,.05,.7,.31,1.19,.85,1.46,1.63l.23,.66c.28,.77,.24,1.5-.11,2.19-.35,.68-.94,1.17-1.77,1.47Zm18.25,46.1c.16,.44,.13,.89-.09,1.34-.21,.45-.54,.75-.98,.91-.5,.18-.96,.15-1.38-.07-.42-.22-.71-.56-.87-1l-14-39.39c-.16-.44-.13-.89,.09-1.34,.21-.45,.54-.75,.98-.91,.5-.18,.96-.15,1.38,.07,.42,.22,.71,.56,.87,1l14,39.39Z"/><path class="cls-2" d="M973.57,596.15c-.5,.18-.96,.15-1.38-.07-.42-.22-.71-.56-.87-1l-20.63-58.04c-.16-.44-.14-.88,.04-1.32,.19-.44,.53-.75,1.03-.93,.5-.18,.96-.15,1.38,.07,.42,.22,.71,.56,.87,1l20.63,58.04c.16,.44,.14,.88-.04,1.32-.19,.44-.53,.75-1.02,.93Zm13.89-52.1c.44-.16,.89-.13,1.34,.09,.45,.21,.76,.57,.94,1.07,.18,.5,.13,.98-.14,1.45l-20.26,34.19-1.58-3.92,18.8-31.99c.21-.45,.51-.74,.9-.88Zm15.38,41.7c-.44,.16-.93,.11-1.45-.14l-27.67-14.26,1.72-3.04,27.53,14.13c.45,.21,.76,.57,.94,1.07,.2,.55,.12,1.05-.22,1.48-.34,.44-.63,.69-.85,.77Z"/><path class="cls-2" d="M1017.68,578.61c.16,.44,.13,.89-.09,1.34-.21,.45-.54,.75-.98,.91-.5,.18-.96,.15-1.38-.07-.42-.22-.71-.56-.87-1l-20.63-58.04c-.16-.44-.13-.89,.09-1.34,.21-.45,.54-.75,.98-.91,.5-.18,.96-.15,1.38,.07,.42,.22,.71,.56,.87,1l20.63,58.04Z"/><path class="cls-2" d="M1050.24,569.84c-4.15,1.47-8.12,1.89-11.93,1.25-3.81-.64-7.2-2.25-10.17-4.84-2.97-2.59-5.24-6.06-6.79-10.43-1.65-4.64-2.16-8.91-1.52-12.81,.64-3.9,2.07-7.23,4.3-9.98,2.23-2.75,4.95-4.7,8.15-5.84,2.32-.83,4.72-1.26,7.2-1.3,2.48-.04,4.87,.42,7.17,1.38,2.3,.96,4.41,2.42,6.32,4.38,1.91,1.97,3.5,4.56,4.77,7.78,.16,.44,.13,.9-.07,1.38-.2,.48-.53,.8-.97,.95l-33.83,12.02-1.62-2.97,33.42-11.88-.57,1.04-.53-1.49c-1.32-2.83-3.12-4.96-5.4-6.39-2.28-1.43-4.71-2.26-7.29-2.5-2.57-.24-5.05,.07-7.43,.91-1.66,.59-3.27,1.58-4.83,2.97-1.56,1.4-2.84,3.13-3.85,5.2-1.01,2.07-1.58,4.44-1.72,7.1-.14,2.67,.34,5.55,1.44,8.64,1.2,3.37,2.97,6.23,5.33,8.56,2.36,2.34,5.18,3.89,8.47,4.65,3.29,.76,6.9,.44,10.82-.95,1.88-.67,3.54-1.61,4.97-2.84,1.43-1.22,2.62-2.6,3.58-4.12,.95-1.52,1.63-3.04,2.03-4.55,.26-.65,.65-1.07,1.14-1.25,.38-.14,.77-.1,1.16,.1,.38,.21,.64,.5,.78,.89,.14,.39,.14,.76,.02,1.11-.93,2.82-2.44,5.54-4.53,8.15-2.09,2.61-4.77,4.5-8.03,5.66Z"/><path class="cls-2" d="M1078.72,558.78c-.5,.18-.96,.15-1.38-.07-.42-.22-.71-.56-.87-1l-13.53-38.06c-.16-.44-.13-.89,.09-1.34,.21-.45,.54-.75,.98-.91,.5-.18,.96-.15,1.38,.07,.42,.22,.71,.56,.87,1l4.98,14.01-.64,2.66c-.77-2.16-1.17-4.47-1.21-6.95-.04-2.48,.32-4.92,1.08-7.34s1.96-4.59,3.62-6.51c1.65-1.93,3.83-3.37,6.54-4.33,.77-.27,1.64-.46,2.61-.55,.96-.09,1.59,.27,1.89,1.1,.18,.5,.19,.96,.03,1.39-.16,.43-.46,.72-.9,.88-.33,.12-.78,.14-1.34,.05-.56-.08-1.28,.04-2.16,.35-1.77,.63-3.32,1.77-4.66,3.43-1.34,1.66-2.41,3.61-3.2,5.85s-1.24,4.53-1.34,6.87c-.1,2.34,.19,4.48,.88,6.41l7.37,20.73c.16,.44,.13,.89-.09,1.34-.21,.45-.54,.75-.98,.91Z"/></g><g class="cls-8"><g><path class="cls-2" d="M828.72,480.74c.52-.09,.97,.01,1.35,.31,.38,.29,.6,.67,.68,1.13l6.72,39.83c.08,.46-.03,.9-.31,1.3-.29,.41-.67,.65-1.13,.73-.52,.09-.97-.01-1.35-.31-.38-.29-.6-.67-.68-1.13l-2.08-12.32,1.2-1.36c.31,1.85,.17,3.81-.44,5.87-.6,2.06-1.59,4.01-2.94,5.85-1.36,1.83-3.05,3.42-5.09,4.74-2.04,1.33-4.33,2.2-6.88,2.63-3.88,.65-7.5,.23-10.88-1.29-3.38-1.51-6.23-3.86-8.55-7.04-2.32-3.18-3.85-6.94-4.58-11.28-.74-4.39-.52-8.44,.68-12.12,1.19-3.68,3.15-6.75,5.86-9.2,2.71-2.45,5.97-4,9.79-4.64,2.49-.42,4.91-.37,7.26,.16s4.49,1.46,6.41,2.8c1.92,1.34,3.53,3.02,4.82,5.03,1.29,2.01,2.15,4.29,2.58,6.84l-1.75-1.93-2.12-12.58c-.08-.46,.01-.89,.27-1.29,.26-.4,.65-.65,1.17-.73Zm-11.33,43.94c3.24-.55,5.99-1.89,8.25-4.02,2.26-2.14,3.86-4.81,4.8-8.04,.94-3.22,1.1-6.71,.46-10.48-.61-3.59-1.88-6.72-3.82-9.4-1.94-2.68-4.33-4.65-7.16-5.93-2.83-1.28-5.87-1.64-9.11-1.1-3.18,.54-5.91,1.84-8.17,3.92-2.27,2.08-3.89,4.69-4.88,7.83-.99,3.14-1.16,6.59-.53,10.35,.63,3.76,1.92,7.01,3.87,9.74,1.95,2.74,4.34,4.74,7.17,6.02,2.83,1.28,5.87,1.64,9.11,1.1Z"/><path class="cls-2" d="M864.33,473.3c3.64-.61,6.73-.39,9.26,.67,2.53,1.06,4.54,2.75,6.03,5.05,1.49,2.31,2.49,4.99,3.01,8.06l4.48,26.55c.08,.46-.03,.9-.32,1.3-.29,.41-.66,.65-1.13,.73-.52,.09-.97-.01-1.35-.31-.38-.29-.6-.67-.68-1.13l-4.42-26.21c-.42-2.49-1.22-4.67-2.4-6.56-1.18-1.88-2.79-3.28-4.81-4.19-2.03-.91-4.52-1.11-7.47-.61-2.55,.43-4.93,1.46-7.15,3.08-2.23,1.62-3.96,3.58-5.21,5.88-1.25,2.29-1.66,4.68-1.25,7.17l4.42,26.21c.08,.46-.03,.9-.32,1.3-.29,.41-.66,.65-1.13,.72-.52,.09-.97-.01-1.35-.31-.38-.29-.6-.67-.68-1.13l-6.72-39.83c-.08-.46,.03-.9,.32-1.3,.29-.41,.66-.65,1.13-.73,.52-.09,.97,.02,1.35,.31,.38,.29,.6,.67,.68,1.13l1.43,8.5-1.47,4.53c-.35-2.08-.14-4.17,.64-6.26,.78-2.09,1.94-4.03,3.48-5.81,1.54-1.78,3.33-3.27,5.36-4.47,2.03-1.2,4.11-1.99,6.25-2.35Z"/><path class="cls-2" d="M895,462.06c-.93,.16-1.71,.02-2.34-.41-.64-.43-1.02-1.05-1.16-1.86l-.12-.69c-.14-.81,.04-1.52,.53-2.14,.49-.62,1.2-1.01,2.12-1.16,.81-.14,1.53,0,2.17,.44,.64,.43,1.02,1.05,1.16,1.86l.12,.69c.14,.81-.03,1.52-.49,2.13s-1.13,.99-1.99,1.14Zm9.97,48.56c.08,.46-.03,.9-.32,1.3-.29,.41-.66,.65-1.13,.72-.52,.09-.97-.01-1.35-.31-.38-.29-.6-.67-.68-1.13l-6.95-41.22c-.08-.46,.03-.9,.32-1.3s.66-.65,1.13-.73c.52-.09,.97,.02,1.35,.31,.38,.29,.6,.67,.68,1.13l6.95,41.22Z"/><path class="cls-2" d="M930.77,462.99c3.24-.55,6.35-.16,9.34,1.15,2.99,1.31,5.29,3.76,6.91,7.36l-1,.97,.16-1.72c.43-2.04,1.46-3.96,3.08-5.79,1.62-1.82,3.54-3.38,5.73-4.67,2.19-1.29,4.39-2.12,6.58-2.49,3.47-.59,6.46-.32,8.97,.81,2.51,1.12,4.51,2.85,6.01,5.19,1.49,2.34,2.51,5.1,3.05,8.28l4.26,25.25c.08,.46-.01,.9-.27,1.3-.26,.4-.65,.64-1.17,.73s-.97-.01-1.35-.31c-.38-.29-.6-.67-.68-1.13l-4.2-24.9c-.43-2.54-1.24-4.8-2.44-6.77-1.2-1.97-2.78-3.43-4.75-4.38-1.98-.95-4.38-1.18-7.21-.7-2.49,.42-4.81,1.45-6.97,3.09-2.16,1.64-3.83,3.65-5.01,6.02-1.18,2.37-1.55,4.83-1.12,7.37l4.2,24.9c.08,.46-.01,.9-.27,1.3-.26,.4-.65,.64-1.17,.73-.52,.09-.97-.01-1.35-.31-.38-.29-.6-.67-.68-1.13l-4.27-25.34c-.42-2.49-1.19-4.68-2.31-6.57-1.12-1.89-2.63-3.3-4.51-4.24s-4.21-1.16-6.99-.7c-2.43,.41-4.68,1.41-6.76,3.01s-3.7,3.54-4.86,5.82c-1.16,2.28-1.54,4.66-1.12,7.15l4.27,25.34c.08,.46-.03,.9-.32,1.3-.29,.41-.66,.65-1.13,.73-.52,.09-.97-.01-1.35-.31-.38-.29-.61-.67-.68-1.13l-6.72-39.83c-.08-.46,.03-.9,.32-1.3,.29-.41,.66-.65,1.13-.73,.52-.09,.97,.02,1.35,.31,.38,.29,.6,.67,.68,1.13l1.59,9.46-1.86,4.86c-.34-2.02-.18-4.07,.48-6.15,.66-2.08,1.69-4.02,3.08-5.83,1.39-1.81,3.06-3.36,5.02-4.64,1.95-1.28,4.06-2.11,6.32-2.49Z"/><path class="cls-2" d="M987.2,453.65l20.13-3.4c.46-.08,.88,.03,1.26,.32,.38,.29,.6,.64,.67,1.05,.08,.46-.02,.88-.28,1.25-.26,.37-.63,.6-1.09,.67l-20.13,3.4c-.41,.07-.81-.04-1.22-.33-.41-.29-.64-.63-.71-1.04-.08-.46,.03-.88,.32-1.26,.29-.38,.64-.6,1.05-.67Zm6.7-14.25c.52-.09,.97,.01,1.35,.31,.38,.29,.6,.67,.68,1.13l7.62,45.21c.32,1.91,.8,3.27,1.45,4.08,.64,.81,1.36,1.29,2.16,1.42,.79,.13,1.54,.14,2.24,.02,.4-.07,.74-.18,1.01-.35,.27-.17,.61-.28,1.01-.35,.4-.07,.78,.03,1.12,.3,.34,.27,.55,.61,.62,1.01,.09,.52-.17,1.03-.77,1.51-.6,.49-1.4,.82-2.38,.98-.35,.06-.97,.15-1.87,.27-.9,.12-1.9,.02-3-.3-1.1-.32-2.1-1.07-3.01-2.26-.91-1.18-1.59-3.05-2.01-5.59l-7.65-45.38c-.08-.46,.03-.9,.32-1.3,.29-.41,.66-.65,1.13-.73Z"/><path class="cls-2" d="M1062.03,463.43c.72,4.28,.45,8.3-.82,12.05-1.27,3.75-3.34,6.9-6.22,9.44s-6.37,4.15-10.47,4.84c-4.05,.68-7.86,.3-11.44-1.15-3.58-1.45-6.59-3.74-9.06-6.86-2.46-3.12-4.05-6.83-4.77-11.11-.73-4.34-.45-8.39,.85-12.15,1.3-3.76,3.4-6.91,6.3-9.45,2.9-2.54,6.38-4.16,10.43-4.84,4.11-.69,7.93-.31,11.48,1.14,3.55,1.45,6.54,3.75,8.97,6.88,2.43,3.13,4.01,6.86,4.75,11.2Zm-38.73,31.25c-.41,.07-.83-.04-1.26-.32-.44-.28-.69-.66-.77-1.12-.08-.46,0-.89,.23-1.29l31.15-51.84c.27-.52,.66-.83,1.19-.91,.46-.08,.9,.03,1.3,.31,.4,.29,.65,.67,.72,1.13,.09,.52,.01,.95-.23,1.29l-31.15,51.84c-.27,.52-.66,.83-1.18,.91Zm35.25-30.67c-.63-3.76-1.97-6.97-3.99-9.63-2.03-2.66-4.53-4.62-7.5-5.87-2.98-1.25-6.2-1.59-9.67-1-3.41,.58-6.34,1.95-8.77,4.11-2.43,2.17-4.18,4.84-5.25,8.02-1.07,3.19-1.29,6.66-.65,10.42,.62,3.7,1.96,6.88,4.02,9.54,2.05,2.66,4.58,4.61,7.59,5.86,3,1.25,6.22,1.58,9.63,1.01,3.47-.59,6.41-1.96,8.81-4.12,2.4-2.16,4.12-4.83,5.16-8.01,1.04-3.18,1.25-6.62,.62-10.32Z"/><path class="cls-2" d="M1079.51,482.97c-.52,.09-.97-.01-1.35-.31-.38-.29-.6-.67-.68-1.13l-6.72-39.83c-.08-.46,.03-.9,.32-1.3,.29-.41,.66-.65,1.13-.73,.52-.09,.97,.02,1.35,.31,.38,.29,.6,.67,.68,1.13l2.47,14.66-1.09,2.51c-.38-2.26-.38-4.61,.02-7.05,.39-2.45,1.17-4.79,2.34-7.04,1.17-2.25,2.73-4.18,4.69-5.79s4.36-2.65,7.19-3.13c.81-.14,1.7-.17,2.66-.09,.96,.08,1.52,.55,1.67,1.41,.09,.52,.02,.98-.21,1.38-.23,.4-.58,.63-1.04,.71-.35,.06-.79,0-1.32-.18-.54-.18-1.27-.19-2.19-.03-1.85,.31-3.58,1.17-5.19,2.57-1.61,1.4-3,3.14-4.17,5.21-1.17,2.07-2,4.25-2.51,6.54-.51,2.29-.59,4.44-.25,6.47l3.66,21.69c.08,.46-.03,.9-.32,1.3-.29,.41-.66,.65-1.13,.72Z"/></g></g><rect class="cls-1" x="765.31" y="443.28" width="357" height="210" transform="translate(1887.61 1096.56) rotate(180)"/><g class="cls-7"><path class="cls-2" d="M858.56,184.89c.52,.09,.91,.34,1.16,.75,.25,.4,.34,.84,.25,1.3l-4.6,25.19c-1.02,5.6-3.36,9.51-7.02,11.73-3.66,2.23-8.08,2.86-13.28,1.91-5.14-.94-9.02-3.09-11.66-6.47-2.63-3.37-3.44-7.86-2.42-13.46l4.6-25.19c.08-.46,.33-.83,.74-1.12,.41-.28,.84-.38,1.31-.3,.52,.09,.91,.34,1.16,.75,.25,.4,.34,.84,.25,1.3l-4.6,25.19c-.8,4.39-.19,7.96,1.84,10.71,2.03,2.76,5.15,4.52,9.37,5.29,4.27,.78,7.84,.24,10.72-1.62,2.87-1.86,4.71-4.98,5.51-9.37l4.6-25.19c.08-.46,.32-.84,.7-1.12,.38-.29,.83-.38,1.35-.29Z"/><path class="cls-2" d="M870.75,186.76l20.08,3.67c.46,.08,.82,.33,1.08,.73,.25,.4,.34,.81,.27,1.21-.08,.46-.32,.82-.69,1.08-.38,.26-.79,.35-1.26,.26l-20.08-3.67c-.4-.07-.75-.32-1.03-.73-.28-.41-.39-.82-.31-1.22,.08-.46,.33-.82,.73-1.07,.4-.25,.81-.34,1.21-.27Zm11.16-11.11c.52,.09,.91,.34,1.16,.75,.25,.4,.34,.84,.25,1.3l-8.24,45.1c-.35,1.9-.36,3.35-.03,4.33,.33,.98,.84,1.67,1.54,2.07,.7,.4,1.4,.66,2.09,.79,.4,.07,.76,.08,1.07,.02,.31-.06,.67-.06,1.07,.02,.4,.07,.72,.3,.95,.66,.23,.37,.31,.76,.24,1.16-.09,.52-.51,.91-1.24,1.16-.73,.26-1.59,.29-2.57,.11-.35-.06-.97-.19-1.85-.38-.89-.19-1.79-.63-2.71-1.3-.92-.67-1.61-1.73-2.06-3.15s-.45-3.41,.01-5.95l8.27-45.28c.08-.46,.33-.83,.74-1.12,.41-.28,.84-.38,1.31-.3Z"/><path class="cls-2" d="M900.23,190.89c.29,.05,.57,.21,.85,.47,.28,.26,.45,.57,.5,.94l9.01,41.27-.98,.45,23.39-35.98c.42-.7,1.1-.96,2.02-.79,.29,.05,.61,.23,.98,.54,.36,.3,.5,.69,.42,1.15-.05,.29-.12,.5-.2,.63-.08,.13-.17,.25-.25,.36l-24.76,38.06c-.43,.7-1.04,.97-1.85,.82-.35-.06-.66-.22-.94-.48-.28-.26-.45-.57-.5-.94l-9.8-44.28c-.04-.12-.06-.26-.06-.41,0-.15,0-.28,.03-.4,.08-.46,.3-.84,.65-1.13,.35-.29,.85-.38,1.48-.27Z"/><path class="cls-2" d="M942.75,243.12c-.08,.46-.33,.83-.74,1.12-.41,.28-.84,.38-1.31,.3-.52-.09-.91-.34-1.16-.75-.25-.4-.34-.84-.25-1.3l7.51-41.12c.08-.46,.33-.83,.74-1.12s.84-.38,1.31-.3c.52,.09,.91,.34,1.16,.75,.25,.4,.34,.84,.25,1.3l-7.51,41.12Zm7.17-49.05c-.92-.17-1.61-.56-2.07-1.18-.45-.62-.61-1.33-.46-2.14l.13-.69c.15-.81,.56-1.42,1.23-1.83,.67-.42,1.47-.54,2.39-.37,.81,.15,1.44,.53,1.89,1.15,.45,.62,.61,1.33,.46,2.14l-.13,.69c-.15,.81-.54,1.42-1.19,1.84s-1.4,.55-2.26,.39Z"/><path class="cls-2" d="M958.96,247.87c-.52-.09-.91-.34-1.16-.75-.25-.4-.34-.84-.25-1.3l11.07-60.6c.08-.46,.32-.84,.7-1.12,.38-.29,.83-.39,1.35-.29s.91,.35,1.16,.75c.25,.4,.34,.84,.25,1.3l-11.07,60.6c-.08,.46-.32,.84-.7,1.12-.38,.29-.83,.38-1.35,.29Zm38.03-38.23c.46,.08,.83,.33,1.12,.74,.28,.41,.38,.87,.28,1.39-.09,.52-.38,.92-.84,1.19l-34.61,19.53,.58-4.19,32.25-18.35c.41-.28,.82-.39,1.22-.31Zm-7.47,43.81c-.46-.08-.86-.37-1.19-.84l-16.87-26.16,3.01-1.78,16.81,25.97c.28,.41,.38,.87,.28,1.39-.11,.58-.42,.97-.93,1.17-.52,.21-.89,.29-1.12,.24Z"/><path class="cls-2" d="M1005.94,254.67c-.08,.46-.33,.83-.74,1.12-.41,.28-.85,.38-1.31,.3-.52-.09-.91-.34-1.16-.75-.25-.4-.34-.84-.25-1.3l11.07-60.6c.08-.46,.33-.83,.74-1.12,.41-.28,.84-.38,1.31-.3,.52,.09,.91,.34,1.16,.75,.25,.4,.34,.84,.25,1.3l-11.07,60.6Z"/><path class="cls-2" d="M1038.53,263.31c-4.33-.79-7.98-2.41-10.96-4.87-2.98-2.45-5.11-5.54-6.4-9.27-1.29-3.72-1.51-7.87-.68-12.42,.89-4.85,2.58-8.8,5.08-11.87,2.5-3.06,5.4-5.23,8.7-6.5,3.3-1.28,6.63-1.61,9.98-1,2.42,.44,4.72,1.27,6.88,2.47,2.17,1.2,4.01,2.79,5.53,4.77,1.52,1.98,2.61,4.29,3.29,6.95,.68,2.66,.76,5.7,.25,9.13-.08,.46-.33,.85-.75,1.16-.41,.31-.85,.43-1.31,.34l-35.32-6.45,.08-3.38,34.89,6.38-1.01,.62,.29-1.56c.27-3.11-.23-5.86-1.49-8.23-1.27-2.38-2.96-4.31-5.07-5.8-2.11-1.49-4.41-2.46-6.89-2.91-1.73-.32-3.62-.26-5.67,.17-2.05,.43-4.02,1.29-5.93,2.58-1.91,1.29-3.59,3.06-5.04,5.3-1.45,2.24-2.47,4.98-3.07,8.21-.64,3.52-.53,6.88,.35,10.08,.88,3.2,2.55,5.95,5.02,8.25,2.47,2.3,5.76,3.83,9.85,4.58,1.96,.36,3.87,.36,5.72,.02,1.85-.35,3.57-.94,5.16-1.79,1.58-.84,2.93-1.82,4.02-2.93,.56-.44,1.09-.61,1.62-.51,.4,.07,.72,.3,.95,.67,.23,.37,.31,.76,.23,1.16-.07,.41-.25,.73-.54,.98-2.21,1.98-4.87,3.58-7.99,4.8-3.12,1.22-6.38,1.52-9.78,.9Z"/><path class="cls-2" d="M1068.73,267.93c-.52-.1-.91-.34-1.16-.75-.25-.4-.34-.84-.25-1.3l7.26-39.73c.08-.46,.33-.83,.74-1.12,.41-.28,.84-.38,1.31-.3,.52,.09,.91,.34,1.16,.75,.25,.4,.34,.84,.25,1.3l-2.67,14.63-1.88,1.98c.41-2.25,1.22-4.46,2.42-6.62,1.2-2.17,2.73-4.11,4.6-5.82,1.86-1.72,3.99-3,6.38-3.84,2.39-.84,5-1.01,7.83-.49,.81,.15,1.65,.42,2.53,.82,.88,.4,1.24,1.03,1.08,1.9-.1,.52-.32,.93-.67,1.22-.35,.29-.76,.4-1.22,.31-.35-.06-.74-.27-1.18-.62-.44-.35-1.13-.61-2.05-.78-1.85-.34-3.77-.12-5.75,.65-1.99,.77-3.89,1.93-5.69,3.48-1.8,1.55-3.33,3.31-4.59,5.29-1.26,1.98-2.07,3.98-2.44,6l-3.96,21.64c-.08,.46-.33,.83-.74,1.12-.41,.28-.84,.38-1.31,.3Z"/></g><g class="cls-8"><g><path class="cls-2" d="M890.9,75.46c.49,.18,.83,.5,1.01,.94,.18,.44,.19,.88,.03,1.32l-14.04,37.87c-.16,.44-.47,.76-.92,.97-.45,.21-.9,.23-1.34,.07-.49-.18-.83-.5-1.01-.94-.18-.44-.19-.88-.02-1.32l4.34-11.72,1.72-.58c-.65,1.76-1.76,3.38-3.31,4.87-1.55,1.49-3.38,2.69-5.46,3.6-2.09,.91-4.35,1.44-6.78,1.57-2.43,.13-4.85-.25-7.27-1.15-3.69-1.37-6.62-3.55-8.79-6.54-2.18-3-3.47-6.45-3.9-10.36-.43-3.91,.13-7.93,1.66-12.06,1.55-4.18,3.76-7.57,6.63-10.16,2.87-2.6,6.09-4.28,9.66-5.05,3.57-.77,7.17-.49,10.8,.86,2.37,.88,4.43,2.13,6.21,3.76,1.78,1.63,3.16,3.5,4.16,5.62,1,2.12,1.55,4.38,1.67,6.77s-.28,4.79-1.17,7.21l-.56-2.55,4.44-11.96c.16-.44,.46-.77,.88-.99,.42-.22,.88-.24,1.38-.05Zm-31.74,32.44c3.08,1.14,6.13,1.35,9.15,.62,3.02-.72,5.74-2.25,8.17-4.57,2.42-2.32,4.3-5.27,5.63-8.85,1.26-3.41,1.72-6.76,1.38-10.05-.35-3.29-1.43-6.19-3.25-8.71-1.82-2.52-4.27-4.35-7.35-5.49-3.03-1.12-6.04-1.35-9.04-.68-3,.67-5.71,2.12-8.14,4.35-2.42,2.23-4.3,5.13-5.62,8.71-1.33,3.58-1.83,7.04-1.5,10.38,.32,3.34,1.39,6.28,3.21,8.79,1.82,2.52,4.27,4.35,7.35,5.49Z"/><path class="cls-2" d="M925.47,86.78c3.46,1.29,6.03,3.02,7.69,5.2,1.66,2.18,2.56,4.64,2.71,7.38,.14,2.74-.33,5.57-1.41,8.49l-9.36,25.25c-.16,.44-.47,.76-.92,.97-.45,.21-.9,.23-1.34,.07-.5-.18-.83-.5-1.01-.94-.18-.44-.19-.88-.03-1.32l9.24-24.92c.88-2.37,1.27-4.66,1.19-6.88-.08-2.22-.78-4.23-2.08-6.03s-3.36-3.22-6.17-4.26c-2.42-.9-5-1.2-7.74-.9-2.74,.3-5.22,1.13-7.45,2.5-2.23,1.36-3.78,3.23-4.66,5.59l-9.24,24.92c-.16,.44-.47,.76-.92,.97-.45,.21-.9,.23-1.34,.07-.5-.18-.83-.5-1.01-.94-.18-.44-.19-.88-.03-1.32l14.04-37.87c.16-.44,.47-.76,.92-.97,.45-.21,.9-.23,1.34-.07,.49,.18,.83,.5,1.01,.94,.18,.44,.19,.88,.03,1.32l-3,8.09-3.53,3.2c.73-1.98,1.96-3.69,3.68-5.11,1.72-1.43,3.69-2.53,5.92-3.3,2.22-.77,4.52-1.17,6.88-1.2,2.36-.03,4.56,.33,6.59,1.08Z"/><path class="cls-2" d="M942.09,139.4c-.16,.44-.47,.77-.92,.97-.45,.21-.9,.23-1.34,.07-.49-.18-.83-.5-1.01-.94-.18-.44-.19-.88-.03-1.32l14.53-39.19c.16-.44,.47-.77,.92-.97,.45-.21,.9-.23,1.34-.07,.49,.18,.83,.5,1.01,.94s.19,.88,.03,1.32l-14.53,39.19Zm15.58-47.06c-.88-.33-1.49-.83-1.83-1.52-.34-.69-.37-1.42-.08-2.19l.25-.66c.29-.77,.79-1.3,1.53-1.59s1.54-.27,2.42,.05c.77,.29,1.32,.77,1.66,1.46,.34,.69,.37,1.42,.08,2.19l-.24,.66c-.29,.77-.78,1.3-1.49,1.61-.71,.3-1.47,.3-2.3,0Z"/><path class="cls-2" d="M988.2,110.98c3.08,1.14,5.59,3.03,7.52,5.65,1.94,2.63,2.71,5.9,2.32,9.82l-1.35,.35,.99-1.41c1.39-1.55,3.24-2.71,5.56-3.48,2.32-.77,4.75-1.16,7.29-1.19s4.86,.35,6.95,1.12c3.3,1.22,5.76,2.95,7.37,5.17,1.62,2.23,2.49,4.72,2.62,7.49,.13,2.77-.37,5.67-1.49,8.69l-8.9,24.01c-.16,.44-.46,.77-.88,.99-.42,.22-.88,.24-1.38,.05-.5-.18-.83-.5-1.01-.94-.18-.44-.19-.88-.03-1.32l8.78-23.68c.9-2.42,1.32-4.78,1.27-7.09-.05-2.3-.7-4.36-1.94-6.16-1.24-1.8-3.21-3.21-5.9-4.21-2.36-.88-4.89-1.14-7.59-.8-2.7,.35-5.14,1.25-7.35,2.72-2.2,1.47-3.75,3.41-4.65,5.83l-8.78,23.68c-.16,.44-.46,.77-.88,.99-.43,.22-.88,.23-1.38,.05-.49-.18-.83-.5-1.01-.94-.18-.44-.19-.88-.03-1.32l8.93-24.09c.88-2.37,1.3-4.65,1.27-6.85-.03-2.2-.63-4.17-1.79-5.92-1.17-1.75-3.07-3.11-5.71-4.09-2.31-.86-4.77-1.11-7.37-.76-2.6,.35-4.97,1.22-7.12,2.62-2.14,1.4-3.66,3.28-4.53,5.64l-8.93,24.09c-.16,.44-.47,.76-.92,.97-.45,.21-.9,.23-1.34,.07-.49-.18-.83-.5-1.01-.94s-.19-.88-.03-1.32l14.04-37.87c.16-.44,.47-.76,.92-.97,.45-.21,.9-.23,1.34-.07,.49,.18,.83,.5,1.01,.94,.18,.44,.19,.88,.03,1.32l-3.33,9-4.04,3.29c.71-1.93,1.87-3.62,3.48-5.09,1.61-1.47,3.47-2.64,5.58-3.52,2.11-.88,4.33-1.38,6.66-1.52,2.33-.13,4.57,.19,6.72,.99Z"/><path class="cls-2" d="M1054.68,122.02c.49,.18,.83,.5,1.01,.94,.18,.44,.19,.88,.03,1.32l-15.94,42.99c-.67,1.82-.93,3.24-.78,4.26,.15,1.03,.54,1.79,1.16,2.31,.62,.51,1.26,.89,1.92,1.14,.38,.14,.73,.21,1.05,.2,.32,0,.67,.06,1.05,.2,.38,.14,.66,.42,.82,.82,.16,.4,.17,.8,.03,1.19-.18,.49-.66,.8-1.42,.93-.76,.12-1.62,.01-2.55-.34-.33-.12-.92-.35-1.76-.7-.84-.34-1.66-.93-2.45-1.75s-1.28-1.98-1.48-3.46c-.2-1.48,.14-3.43,1.04-5.85l16-43.15c.16-.44,.47-.76,.92-.97,.45-.21,.9-.23,1.34-.07Zm-12.91,9.01l19.14,7.1c.44,.16,.75,.46,.93,.91,.18,.44,.2,.86,.06,1.24-.16,.44-.45,.76-.87,.95-.42,.19-.84,.21-1.28,.04l-19.14-7.1c-.38-.14-.68-.44-.89-.89-.21-.45-.24-.87-.1-1.26,.16-.44,.46-.75,.91-.93,.44-.18,.86-.2,1.24-.05Z"/><path class="cls-2" d="M1052.59,184.6c-.39-.14-.7-.45-.93-.91-.24-.46-.27-.91-.11-1.35,.16-.44,.44-.78,.84-1l52.85-29.39c.49-.32,.99-.39,1.48-.2,.44,.16,.77,.47,.97,.92,.21,.46,.23,.9,.07,1.34-.18,.49-.46,.83-.84,1l-52.85,29.39c-.49,.32-.99,.38-1.48,.2Zm49.15-7.77c-1.51,4.07-3.75,7.42-6.72,10.04-2.97,2.62-6.34,4.31-10.1,5.08s-7.59,.42-11.49-1.02c-3.85-1.43-6.96-3.66-9.34-6.7-2.38-3.04-3.85-6.53-4.43-10.46-.57-3.94-.11-7.94,1.4-12.01,1.53-4.12,3.79-7.49,6.8-10.1,3-2.61,6.39-4.29,10.18-5.05s7.6-.42,11.45,1.01c3.91,1.45,7.03,3.69,9.38,6.72,2.35,3.03,3.8,6.51,4.34,10.43,.55,3.93,.06,7.95-1.47,12.08Zm-3.3-1.22c1.33-3.57,1.77-7.02,1.35-10.34-.43-3.32-1.62-6.26-3.58-8.83-1.96-2.57-4.58-4.47-7.89-5.69-3.24-1.2-6.46-1.47-9.65-.81-3.19,.66-6.04,2.11-8.55,4.34-2.51,2.23-4.44,5.13-5.76,8.7-1.3,3.52-1.73,6.95-1.28,10.27s1.67,6.28,3.66,8.87c1.98,2.58,4.6,4.47,7.84,5.68,3.3,1.22,6.53,1.5,9.69,.83,3.16-.68,5.98-2.13,8.47-4.37,2.49-2.24,4.38-5.12,5.69-8.64Z"/><path class="cls-2" d="M1107.15,202.48c-.5-.18-.83-.5-1.01-.94-.18-.44-.19-.88-.03-1.32l14.04-37.87c.16-.44,.47-.76,.92-.97,.45-.21,.9-.23,1.34-.07,.5,.18,.83,.5,1.01,.94,.18,.44,.19,.88,.03,1.32l-5.17,13.94-2.2,1.62c.8-2.14,1.97-4.18,3.53-6.1,1.56-1.93,3.4-3.57,5.54-4.94,2.13-1.37,4.45-2.26,6.95-2.68,2.5-.42,5.1-.13,7.79,.87,.77,.29,1.55,.7,2.35,1.25,.8,.55,1.04,1.23,.74,2.06-.18,.5-.48,.86-.87,1.08s-.82,.26-1.26,.1c-.33-.12-.68-.39-1.06-.81-.38-.42-1-.79-1.88-1.12-1.76-.65-3.69-.77-5.78-.36s-4.16,1.23-6.21,2.44c-2.04,1.21-3.86,2.69-5.44,4.41-1.58,1.73-2.73,3.56-3.44,5.48l-7.65,20.63c-.16,.44-.47,.76-.92,.97-.45,.21-.9,.23-1.34,.07Z"/></g></g><rect class="cls-6" x="787.31" y="56.28" width="357" height="210"/></g></svg>