<?xml version="1.0" encoding="UTF-8"?><svg id="Layer_2" xmlns="http://www.w3.org/2000/svg" viewBox="0 0 78.39 84.01"><defs><style>.cls-1{fill:#0d1b1e;}</style></defs><g id="Layer_1-2"><g><path class="cls-1" d="M60.85,5.58s.08,.07,.11,.12c.03,.05,.04,.11,.05,.18l-.46,8.22-.25-.19,7.79-2.67c.14-.04,.25-.02,.33,.07,.06,.06,.1,.13,.1,.21,0,.08-.02,.15-.07,.22l-6.38,8.42c-.05,.07-.12,.11-.22,.12-.09,0-.17-.01-.24-.06-.08-.06-.12-.13-.13-.22s0-.17,.06-.24l5.94-7.84,.14,.11-7.36,2.59s-.09,.03-.13,.02c-.04,0-.08-.02-.13-.06-.04-.03-.08-.07-.1-.12-.03-.05-.03-.09-.02-.14l.5-7.95,.2,.15-6.02,7.95c-.05,.07-.12,.11-.21,.12-.09,.01-.17,0-.24-.06-.08-.06-.12-.13-.13-.22,0-.09,.01-.16,.07-.23l6.38-8.42c.04-.06,.11-.1,.19-.12,.08-.02,.17,0,.24,.05Z"/><path class="cls-1" d="M64.93,25.13c-.45-.66-.71-1.34-.77-2.04-.06-.7,.06-1.37,.38-2.01,.32-.64,.82-1.2,1.52-1.68,.74-.5,1.47-.79,2.18-.86,.71-.07,1.37,.03,1.95,.29,.59,.26,1.05,.65,1.4,1.16,.25,.37,.44,.77,.56,1.21,.12,.43,.15,.88,.09,1.32-.06,.45-.22,.89-.48,1.31-.26,.43-.64,.83-1.15,1.2-.07,.05-.15,.07-.25,.05-.09-.01-.16-.06-.21-.13l-3.68-5.39,.45-.42,3.63,5.33-.21-.05,.24-.16c.44-.36,.73-.78,.87-1.25,.15-.47,.18-.93,.1-1.4-.08-.46-.25-.89-.5-1.26-.18-.26-.43-.5-.75-.71-.32-.21-.68-.36-1.09-.44-.41-.08-.85-.07-1.33,.03-.48,.1-.96,.32-1.45,.65-.54,.37-.96,.81-1.26,1.33-.3,.52-.44,1.09-.43,1.7s.24,1.23,.67,1.86c.2,.3,.45,.55,.73,.74s.58,.34,.89,.44c.31,.1,.61,.15,.89,.15,.13,.02,.22,.06,.27,.14,.04,.06,.05,.13,.04,.21-.02,.08-.06,.14-.12,.18-.06,.04-.13,.06-.2,.06-.54-.03-1.09-.17-1.64-.42-.56-.25-1.01-.63-1.37-1.15Z"/><path class="cls-1" d="M67.48,29.39c-.04-.09-.03-.17,0-.25,.04-.08,.1-.13,.18-.17l6.82-2.73c.08-.03,.16-.03,.24,0,.08,.04,.14,.09,.17,.17,.04,.09,.03,.17,0,.25-.04,.08-.1,.13-.18,.16l-2.51,1-.49-.1c.39-.15,.8-.24,1.25-.27,.45-.02,.9,.02,1.34,.14s.85,.32,1.21,.61c.36,.29,.64,.67,.83,1.16,.06,.14,.09,.3,.12,.47,.02,.17-.04,.29-.19,.35-.09,.04-.17,.04-.25,.01-.08-.03-.13-.08-.17-.16-.02-.06-.03-.14-.02-.24s-.02-.23-.08-.39c-.13-.32-.35-.59-.66-.82-.31-.23-.67-.41-1.09-.54s-.83-.19-1.26-.19-.81,.07-1.16,.2l-3.71,1.48c-.08,.03-.16,.03-.24,0s-.14-.09-.17-.17Z"/><path class="cls-1" d="M74.29,45.07c-.79,.02-1.51-.13-2.15-.45s-1.16-.78-1.54-1.36-.59-1.25-.61-2.01c-.02-.75,.15-1.42,.5-2.03s.84-1.09,1.46-1.46,1.33-.56,2.12-.58c.8-.02,1.52,.13,2.17,.46,.64,.33,1.16,.79,1.54,1.38,.38,.59,.59,1.25,.61,2,.02,.76-.15,1.44-.5,2.04-.35,.6-.84,1.08-1.47,1.44-.63,.36-1.34,.55-2.14,.57Zm-.02-.64c.69-.02,1.3-.18,1.84-.47,.53-.3,.95-.7,1.25-1.2,.3-.5,.44-1.08,.43-1.72-.02-.63-.19-1.19-.52-1.68-.33-.49-.77-.88-1.31-1.15-.55-.27-1.17-.4-1.86-.38-.68,.02-1.29,.18-1.82,.48-.53,.3-.95,.71-1.25,1.22s-.44,1.08-.43,1.71c.02,.64,.19,1.2,.52,1.69,.33,.49,.76,.86,1.31,1.13,.55,.27,1.16,.39,1.84,.37Z"/><path class="cls-1" d="M76.98,52.28c-.19,.57-.52,1.03-.99,1.4-.47,.37-1.06,.52-1.77,.47l-.07-.24,.26,.17c.29,.24,.51,.58,.66,.99,.15,.42,.23,.86,.25,1.32,.02,.46-.04,.88-.17,1.27-.21,.61-.51,1.06-.9,1.37-.4,.3-.85,.48-1.35,.51-.5,.04-1.03-.04-1.59-.23l-4.41-1.5c-.08-.03-.14-.08-.18-.16s-.05-.16-.02-.25c.03-.09,.09-.15,.17-.19,.08-.04,.16-.04,.24-.01l4.35,1.48c.44,.15,.88,.22,1.29,.2,.42-.02,.79-.15,1.11-.38,.32-.23,.57-.6,.74-1.09,.15-.43,.18-.9,.11-1.38-.08-.49-.25-.93-.53-1.32-.28-.39-.64-.67-1.08-.82l-4.35-1.48c-.08-.03-.14-.08-.18-.16-.04-.08-.05-.16-.02-.25s.09-.15,.17-.19c.08-.04,.16-.04,.24-.01l4.42,1.5c.43,.15,.85,.21,1.25,.2s.76-.13,1.07-.35c.31-.22,.55-.57,.71-1.06,.14-.42,.18-.87,.1-1.34-.08-.47-.25-.9-.51-1.28-.26-.38-.61-.65-1.05-.8l-4.42-1.5c-.08-.03-.14-.08-.18-.16s-.05-.16-.02-.24c.03-.09,.09-.15,.17-.19,.08-.04,.16-.04,.24-.01l6.95,2.36c.08,.03,.14,.08,.18,.16,.04,.08,.05,.16,.02,.24-.03,.09-.09,.15-.17,.19-.08,.04-.16,.04-.24,.01l-1.65-.56-.62-.72c.35,.12,.67,.32,.94,.61,.28,.29,.5,.62,.67,1,.17,.38,.27,.78,.31,1.2,.04,.42-.01,.83-.15,1.23Z"/><path class="cls-1" d="M65.85,70.75c-.46,.38-.99,.6-1.58,.66-.59,.06-1.17-.12-1.75-.54l.07-.24,.13,.29c.12,.36,.13,.76,.03,1.19-.09,.43-.25,.85-.48,1.25-.23,.4-.5,.73-.82,.99-.5,.41-.99,.63-1.49,.68-.5,.05-.97-.04-1.42-.28s-.86-.58-1.23-1.03l-2.95-3.6c-.05-.07-.08-.14-.07-.23,0-.09,.04-.16,.12-.22,.08-.06,.16-.08,.24-.07,.09,.01,.16,.05,.21,.12l2.91,3.55c.3,.36,.63,.65,1,.85s.75,.29,1.14,.26c.4-.03,.8-.21,1.2-.54,.35-.29,.63-.66,.82-1.12s.28-.92,.25-1.4c-.03-.48-.19-.9-.49-1.27l-2.91-3.55c-.05-.07-.08-.14-.07-.23,0-.09,.04-.16,.12-.22,.07-.06,.16-.08,.24-.07,.09,.01,.16,.05,.21,.12l2.96,3.62c.29,.35,.61,.63,.96,.83,.35,.2,.71,.29,1.09,.26,.38-.02,.77-.2,1.17-.52,.35-.28,.61-.65,.8-1.09,.18-.44,.27-.89,.24-1.36-.02-.46-.18-.87-.47-1.23l-2.96-3.62c-.05-.07-.08-.14-.07-.23,0-.09,.05-.16,.11-.22,.07-.06,.15-.09,.24-.07,.09,.01,.16,.05,.21,.12l4.65,5.69c.05,.07,.08,.14,.07,.23,0,.09-.05,.16-.11,.22-.07,.06-.15,.08-.24,.07-.09-.01-.16-.05-.21-.12l-1.1-1.35-.15-.94c.24,.29,.4,.63,.48,1.01,.08,.39,.1,.79,.04,1.2-.06,.41-.18,.81-.38,1.18-.19,.38-.45,.7-.77,.96Z"/><path class="cls-1" d="M49,71.33c.75-.27,1.48-.34,2.17-.22,.69,.12,1.31,.41,1.85,.88s.95,1.1,1.23,1.9c.3,.84,.39,1.62,.27,2.33-.12,.71-.38,1.31-.78,1.81-.41,.5-.9,.85-1.48,1.06-.42,.15-.86,.23-1.31,.23-.45,0-.88-.08-1.3-.25-.42-.17-.8-.44-1.15-.8-.35-.36-.64-.83-.87-1.42-.03-.08-.02-.16,.01-.25,.04-.09,.1-.14,.18-.17l6.15-2.18,.29,.54-6.08,2.15,.1-.19,.1,.27c.24,.52,.57,.9,.98,1.16,.42,.26,.86,.41,1.32,.46,.47,.04,.92-.01,1.35-.16,.3-.11,.59-.29,.88-.54,.28-.25,.52-.57,.7-.94s.29-.81,.32-1.29c.03-.48-.06-1.01-.26-1.57-.22-.61-.54-1.13-.97-1.56-.43-.43-.94-.71-1.54-.85-.6-.14-1.25-.08-1.97,.17-.34,.12-.64,.29-.9,.52-.26,.22-.48,.47-.65,.75s-.3,.55-.37,.83c-.05,.12-.12,.19-.21,.23-.07,.02-.14,.02-.21-.02s-.12-.09-.14-.16c-.02-.07-.03-.14,0-.2,.17-.51,.44-1.01,.83-1.48s.87-.82,1.46-1.03Z"/><path class="cls-1" d="M42.08,81.22c-.48,.03-.93-.02-1.36-.17-.43-.14-.81-.34-1.14-.6-.33-.26-.6-.54-.79-.85-.2-.31-.31-.62-.33-.92l.25,.58,.11,1.6c0,.08-.02,.16-.07,.23-.05,.07-.13,.1-.22,.11s-.17-.02-.24-.08c-.06-.06-.1-.13-.1-.22l-.46-6.86c-.05-.82,.07-1.54,.36-2.16,.29-.62,.73-1.11,1.29-1.46,.56-.36,1.23-.56,2.01-.62,.43-.03,.86,0,1.3,.08s.81,.2,1.11,.35c.3,.15,.45,.32,.47,.51,0,.09-.01,.16-.06,.21-.04,.06-.11,.09-.19,.09-.11,0-.21-.04-.31-.16-.1-.11-.27-.21-.51-.29-.1-.03-.23-.06-.4-.1-.17-.04-.37-.07-.61-.1-.24-.02-.5-.02-.79,0-1.01,.07-1.79,.43-2.33,1.09-.54,.66-.77,1.49-.71,2.49l.11,1.58h-.16c.1-.47,.26-.87,.48-1.21,.22-.34,.49-.61,.79-.83,.3-.22,.62-.38,.96-.5s.67-.18,.99-.2c.73-.05,1.4,.09,2.01,.42s1.1,.8,1.48,1.41c.38,.61,.6,1.31,.65,2.11,.05,.8-.07,1.53-.37,2.18-.3,.66-.73,1.18-1.28,1.58-.56,.4-1.2,.62-1.94,.67Zm-.07-.6c.62-.04,1.16-.23,1.64-.57,.47-.34,.83-.79,1.08-1.35,.25-.56,.35-1.18,.3-1.87-.05-.68-.23-1.28-.55-1.81-.32-.52-.73-.93-1.25-1.21-.52-.28-1.08-.4-1.7-.36s-1.16,.23-1.63,.57c-.47,.34-.83,.78-1.08,1.34-.25,.56-.35,1.19-.31,1.9,.05,.71,.23,1.33,.56,1.85,.32,.52,.74,.91,1.25,1.18,.51,.27,1.07,.38,1.69,.34Z"/><path class="cls-1" d="M35.21,75.85c.15,.02,.22,.11,.21,.28l-.78,7.42c-.02,.15-.05,.27-.1,.35-.05,.09-.14,.12-.28,.1s-.22-.07-.25-.17c-.03-.09-.03-.22-.01-.36l.94-7.4c.03-.17,.12-.24,.27-.23Zm.38-2.97c.14,.02,.24,.08,.3,.18,.06,.1,.09,.22,.07,.36l-.04,.37c-.02,.15-.07,.26-.15,.34-.08,.08-.2,.11-.33,.1h-.06c-.15-.02-.25-.08-.31-.18s-.08-.22-.06-.37l.04-.37c.02-.14,.06-.25,.14-.34s.19-.12,.34-.11h.06Z"/><path class="cls-1" d="M19.02,79.48s-.08-.07-.11-.12c-.03-.05-.05-.11-.05-.17l.12-8.23,.26,.18-7.67,3c-.14,.05-.25,.03-.33-.05-.06-.06-.1-.13-.11-.2,0-.08,0-.15,.06-.22l6.02-8.68c.05-.07,.12-.11,.21-.12,.09-.01,.18,0,.25,.05,.08,.05,.13,.13,.14,.22,.02,.09,0,.17-.05,.24l-5.61,8.09-.14-.1,7.25-2.9s.08-.03,.13-.03c.04,0,.09,.02,.13,.05,.04,.03,.08,.07,.11,.11s.04,.09,.03,.14l-.17,7.96-.21-.15,5.68-8.19c.05-.07,.12-.11,.21-.13,.09-.02,.17,0,.24,.05,.08,.05,.12,.12,.14,.21,.01,.09,0,.16-.05,.23l-6.02,8.68c-.04,.06-.1,.11-.19,.13-.08,.03-.16,.01-.24-.04Z"/><path class="cls-1" d="M14.13,60.12c.48,.64,.76,1.31,.86,2.01,.09,.7,0,1.37-.29,2.03-.29,.65-.77,1.23-1.45,1.74-.72,.54-1.43,.85-2.14,.95-.71,.1-1.37,.03-1.96-.21s-1.08-.61-1.45-1.1c-.27-.36-.47-.75-.61-1.18-.14-.43-.19-.87-.14-1.32,.04-.45,.18-.9,.42-1.33,.24-.44,.6-.85,1.1-1.25,.07-.05,.15-.07,.24-.06s.17,.05,.22,.12l3.9,5.23-.43,.44-3.85-5.17,.21,.04-.23,.17c-.42,.38-.7,.81-.82,1.28s-.14,.94-.04,1.4,.28,.87,.56,1.24c.19,.26,.45,.48,.78,.68,.33,.2,.7,.33,1.11,.39s.86,.04,1.33-.08,.95-.36,1.42-.71c.52-.39,.92-.85,1.2-1.39s.4-1.11,.35-1.72c-.04-.61-.29-1.22-.75-1.83-.22-.29-.47-.53-.76-.71-.29-.18-.59-.32-.91-.4s-.62-.12-.9-.11c-.13-.01-.22-.06-.28-.13-.04-.06-.06-.13-.04-.21,.02-.08,.05-.14,.11-.18,.06-.04,.12-.07,.19-.06,.54,.01,1.09,.13,1.66,.35,.57,.22,1.04,.59,1.41,1.09Z"/><path class="cls-1" d="M11.41,55.99c.04,.09,.04,.17,0,.25-.03,.08-.09,.14-.17,.17l-6.7,3.02c-.08,.03-.16,.04-.24,0-.08-.03-.14-.09-.18-.17-.04-.09-.04-.17,0-.25,.03-.08,.09-.14,.17-.17l2.46-1.11,.49,.08c-.38,.17-.79,.28-1.24,.32-.45,.04-.9,.02-1.35-.09-.45-.1-.86-.29-1.23-.56-.37-.27-.67-.64-.88-1.12-.06-.14-.11-.29-.14-.46-.03-.17,.03-.29,.17-.36,.09-.04,.17-.05,.25-.03,.08,.02,.14,.07,.17,.15,.03,.06,.04,.14,.03,.24s.03,.23,.09,.39c.14,.31,.37,.58,.69,.79s.69,.38,1.11,.49c.42,.11,.84,.16,1.26,.14,.43-.02,.81-.1,1.15-.25l3.65-1.64c.08-.04,.16-.04,.24,0,.08,.03,.14,.09,.18,.17Z"/><path class="cls-1" d="M3.94,40.57c.79-.05,1.51,.07,2.17,.37s1.19,.73,1.6,1.29,.64,1.23,.69,1.98c.05,.74-.09,1.43-.41,2.05-.33,.62-.79,1.13-1.4,1.51-.61,.39-1.31,.61-2.1,.66-.8,.05-1.53-.07-2.18-.37-.66-.3-1.19-.74-1.6-1.31-.41-.57-.64-1.23-.69-1.97-.05-.76,.09-1.44,.41-2.06s.8-1.12,1.41-1.5c.61-.38,1.31-.6,2.11-.66Zm.04,.64c-.69,.05-1.3,.23-1.81,.55-.52,.32-.92,.74-1.2,1.25-.28,.52-.4,1.09-.36,1.73,.04,.63,.24,1.18,.59,1.66,.35,.48,.8,.84,1.36,1.09,.56,.25,1.18,.35,1.87,.31,.68-.05,1.28-.23,1.8-.56,.52-.32,.92-.75,1.2-1.27,.28-.52,.4-1.1,.36-1.72-.04-.64-.24-1.19-.59-1.67-.35-.47-.8-.83-1.36-1.08-.56-.25-1.18-.34-1.86-.3Z"/><path class="cls-1" d="M.95,33.48c.17-.57,.48-1.05,.93-1.44,.45-.38,1.04-.56,1.75-.54l.08,.24-.27-.16c-.3-.23-.53-.55-.7-.96-.17-.41-.27-.85-.31-1.31-.04-.46,0-.89,.12-1.27,.18-.61,.46-1.08,.85-1.4,.38-.32,.83-.51,1.33-.57s1.03,0,1.6,.16l4.47,1.31c.08,.02,.15,.07,.19,.15s.05,.16,.03,.25c-.03,.09-.08,.16-.16,.2s-.16,.04-.24,.02l-4.41-1.3c-.45-.13-.88-.18-1.3-.14s-.78,.18-1.09,.43c-.31,.25-.54,.62-.69,1.12-.13,.44-.15,.9-.05,1.39,.1,.48,.29,.92,.59,1.3,.29,.38,.67,.64,1.12,.77l4.41,1.3c.08,.02,.14,.07,.19,.15s.05,.16,.03,.25c-.03,.09-.08,.16-.16,.2-.08,.04-.16,.05-.24,.02l-4.48-1.32c-.44-.13-.86-.18-1.26-.15-.4,.03-.75,.17-1.05,.4-.3,.23-.53,.6-.67,1.09-.13,.43-.14,.88-.05,1.35,.1,.47,.28,.89,.56,1.26,.28,.37,.64,.62,1.08,.75l4.48,1.32c.08,.02,.14,.08,.19,.16,.04,.08,.05,.16,.03,.24-.03,.09-.08,.16-.16,.2-.08,.04-.16,.05-.24,.02L.39,36.87c-.08-.02-.14-.08-.19-.16-.04-.08-.05-.16-.03-.24,.03-.09,.08-.16,.16-.2s.16-.05,.24-.02l1.67,.49,.65,.69c-.36-.11-.68-.29-.97-.57-.29-.27-.52-.6-.71-.97-.19-.37-.31-.77-.36-1.19-.05-.42-.02-.83,.1-1.23Z"/><path class="cls-1" d="M11.29,14.57c.45-.4,.96-.64,1.55-.73,.59-.09,1.18,.07,1.77,.47l-.06,.25-.14-.28c-.13-.35-.16-.75-.08-1.19,.08-.44,.22-.86,.43-1.27,.21-.41,.47-.75,.77-1.02,.48-.43,.96-.67,1.46-.74,.5-.07,.97,0,1.43,.22s.88,.54,1.27,.98l3.09,3.48c.06,.06,.08,.14,.08,.23,0,.09-.04,.16-.11,.23-.07,.06-.15,.09-.24,.08-.09,0-.16-.04-.21-.11l-3.05-3.43c-.31-.35-.66-.62-1.03-.81-.37-.19-.76-.26-1.15-.21-.4,.05-.79,.24-1.18,.59-.34,.31-.6,.69-.78,1.15-.17,.46-.24,.93-.19,1.41,.05,.48,.23,.89,.54,1.24l3.05,3.43c.06,.06,.08,.14,.08,.23,0,.09-.04,.16-.11,.23-.07,.06-.15,.09-.24,.08-.09,0-.16-.05-.21-.11l-3.11-3.49c-.3-.34-.63-.61-.99-.79-.36-.18-.72-.26-1.1-.22-.38,.04-.76,.23-1.14,.57-.33,.3-.58,.67-.75,1.12-.17,.45-.23,.9-.19,1.37s.21,.87,.52,1.21l3.11,3.49c.06,.06,.08,.14,.08,.23,0,.09-.04,.16-.1,.22-.07,.06-.15,.09-.24,.08-.09,0-.16-.04-.21-.11l-4.88-5.49c-.06-.06-.08-.14-.08-.23,0-.09,.04-.16,.1-.22,.07-.06,.15-.09,.24-.08s.16,.04,.21,.11l1.16,1.3,.18,.93c-.25-.28-.42-.61-.52-.99s-.13-.78-.09-1.2c.04-.41,.15-.81,.32-1.2,.18-.39,.42-.72,.73-.99Z"/><path class="cls-1" d="M28.1,13.29c-.74,.3-1.46,.4-2.16,.32s-1.32-.36-1.88-.8c-.56-.45-1-1.06-1.31-1.84-.33-.83-.46-1.6-.37-2.32,.09-.71,.32-1.33,.71-1.84,.38-.52,.86-.89,1.44-1.12,.42-.17,.85-.26,1.3-.29,.45-.03,.89,.04,1.31,.2,.42,.16,.82,.41,1.18,.75,.36,.34,.67,.8,.93,1.38,.03,.08,.03,.16,0,.25-.03,.09-.09,.15-.17,.18l-6.06,2.44-.32-.53,5.98-2.41-.09,.19-.11-.27c-.26-.5-.6-.88-1.03-1.12-.42-.24-.87-.38-1.34-.4-.47-.02-.92,.05-1.34,.22-.3,.12-.58,.31-.85,.58-.27,.26-.49,.59-.66,.97-.17,.38-.25,.82-.26,1.3,0,.48,.1,1,.33,1.56,.24,.6,.59,1.11,1.03,1.52,.45,.41,.97,.67,1.57,.78,.6,.11,1.26,.03,1.96-.25,.34-.14,.63-.32,.88-.55,.25-.23,.46-.49,.62-.77,.16-.28,.27-.56,.33-.84,.04-.12,.11-.2,.2-.23,.07-.03,.14-.02,.21,0,.07,.03,.12,.09,.15,.16,.03,.07,.03,.14,.01,.2-.15,.52-.4,1.02-.76,1.51-.36,.49-.83,.85-1.42,1.09Z"/><path class="cls-1" d="M34.63,3.11c.48-.05,.93-.01,1.36,.11,.43,.12,.82,.31,1.16,.55,.34,.24,.62,.51,.83,.81s.33,.6,.36,.91l-.27-.57-.17-1.59c0-.08,.01-.16,.06-.23,.05-.07,.12-.11,.22-.12,.09-.01,.17,.01,.24,.07,.07,.06,.1,.13,.11,.21l.74,6.84c.09,.82,0,1.54-.27,2.17-.27,.63-.68,1.14-1.23,1.52-.55,.38-1.21,.61-1.99,.7-.42,.05-.86,.04-1.3-.03s-.81-.17-1.12-.31-.47-.3-.49-.49c0-.08,0-.16,.05-.21,.04-.06,.11-.09,.19-.1,.11-.01,.21,.04,.31,.14s.28,.2,.52,.27c.1,.02,.23,.05,.4,.08s.37,.06,.61,.07c.24,.01,.5,0,.79-.03,1.01-.11,1.77-.5,2.28-1.19,.51-.68,.71-1.52,.6-2.52l-.17-1.57h.16c-.08,.47-.22,.88-.43,1.22-.21,.34-.46,.63-.75,.86-.29,.23-.61,.41-.94,.54-.33,.13-.66,.21-.98,.24-.73,.08-1.41-.03-2.02-.34-.62-.3-1.13-.75-1.54-1.35-.41-.59-.65-1.29-.74-2.08s0-1.53,.28-2.19c.27-.67,.68-1.21,1.21-1.64s1.17-.67,1.91-.75Zm.1,.6c-.62,.07-1.15,.28-1.61,.64-.46,.36-.8,.82-1.02,1.39-.22,.57-.3,1.19-.22,1.88,.07,.68,.28,1.27,.62,1.78,.34,.51,.77,.9,1.3,1.16,.53,.26,1.1,.36,1.71,.29s1.15-.28,1.61-.63c.46-.35,.8-.82,1.03-1.38s.3-1.21,.23-1.92c-.08-.71-.29-1.32-.63-1.82-.34-.5-.78-.88-1.3-1.12-.52-.24-1.09-.33-1.7-.27Z"/><path class="cls-1" d="M41.41,11.17c-.14,0-.24-.07-.31-.17-.07-.1-.1-.22-.09-.36l.03-.37c.01-.15,.06-.27,.14-.35,.08-.08,.19-.12,.33-.11h.06c.15,.02,.25,.07,.32,.16,.06,.1,.09,.22,.08,.37l-.03,.37c-.01,.14-.05,.25-.13,.34-.08,.09-.19,.13-.34,.12h-.06Zm.25-2.99c-.15-.01-.22-.1-.22-.27l.46-7.44c.01-.15,.04-.27,.08-.35,.04-.09,.13-.13,.27-.12,.14,.01,.22,.06,.25,.16,.03,.09,.04,.21,.03,.36l-.62,7.43c-.02,.17-.11,.25-.26,.24Z"/></g></g></svg>